<svg width="1800" height="450" viewBox="0 0 1800 450" fill="none" xmlns="http://www.w3.org/2000/svg">
<mask id="path-1-outside-1_127_6" maskUnits="userSpaceOnUse" x="-1" y="6" width="1801" height="155" fill="black">
<rect fill="white" x="-1" y="6" width="1801" height="155"/>
<path d="M120.382 65.2983H161.478V155.792H120.382V119.47L100.249 146.868C95.8214 152.817 89.8023 155.792 82.1919 155.792H29.2653C22.0701 155.792 15.9126 153.233 10.7929 148.113C5.67318 142.993 3.11333 136.836 3.11333 129.64V100.79C3.11333 94.2869 5.05051 88.4753 8.92488 83.3556L53.7568 22.7495C56.5242 18.8751 59.9835 15.9001 64.1346 13.8246C68.4241 11.749 72.9211 10.7113 77.6257 10.7113H148.61V45.9957H45.8697L44.2093 48.2788V120.508H110.419L120.382 107.017V65.2983ZM213.9 45.9957L212.24 48.2788V94.1485L238.392 58.8641H300.243V90.6201H224.278L212.24 107.017V120.508H297.96L317.055 94.7712L323.905 98.0921L287.79 146.868C283.362 152.817 277.412 155.792 269.94 155.792H197.296C190.101 155.792 183.943 153.233 178.824 148.113C173.704 142.993 171.144 136.836 171.144 129.64V100.79C171.144 94.2869 173.081 88.4753 176.956 83.3556L221.787 22.7495C224.555 18.8751 228.014 15.9001 232.165 13.8246C236.455 11.749 240.952 10.7113 245.656 10.7113H329.509V45.9957H213.9ZM455.508 10.7113V45.9957H416.695L415.034 47.8637V155.792H373.938V80.6574L409.223 45.9957H332.012V10.7113H455.508ZM659.666 116.149L668.176 124.036H723.385V155.792H672.327L609.645 87.5067V155.792H568.549V65.2983H605.286L626.457 84.601H672.742C678.138 84.601 682.705 82.733 686.441 78.997C690.177 75.1226 692.045 70.5564 692.045 65.2983C692.045 60.0402 690.177 55.5432 686.441 51.8072C682.705 47.9329 678.138 45.9957 672.742 45.9957H568.549V10.7113H680.422C694.95 10.7113 707.335 15.831 717.574 26.0704C727.952 36.4481 733.141 49.0398 733.141 63.8454C733.002 78.3743 727.537 90.7584 716.744 100.998C706.089 111.099 693.428 116.149 678.761 116.149H659.666ZM782.853 45.9957L781.193 48.2788V94.1485L807.345 58.8641H869.196V90.6201H793.231L781.193 107.017V120.508H866.913L886.008 94.7712L892.858 98.0921L856.743 146.868C852.315 152.817 846.365 155.792 838.893 155.792H766.249C759.054 155.792 752.896 153.233 747.776 148.113C742.657 142.993 740.097 136.836 740.097 129.64V100.79C740.097 94.2869 742.034 88.4753 745.908 83.3556L790.74 22.7495C793.508 18.8751 796.967 15.9001 801.118 13.8246C805.408 11.749 809.905 10.7113 814.609 10.7113H898.462V45.9957H782.853ZM1062.65 10.7113H1063.48L1062.65 155.792H1021.55V116.149H961.364L945.382 137.735V155.792H904.286V106.394C904.286 96.1549 907.33 86.9533 913.419 78.7894L955.552 21.9193C961.087 14.4473 968.49 10.7113 977.761 10.7113H1062.65ZM1021.55 84.601V45.9957H947.043L945.382 48.2788V125.074L969.874 92.073C973.61 87.0916 978.591 84.601 984.818 84.601H1021.55ZM1179.54 10.7113C1192.68 10.7113 1204.79 13.963 1215.86 20.4664C1227.07 26.9698 1235.85 35.8255 1242.22 47.0334C1248.72 58.1031 1251.97 70.2105 1251.97 83.3556C1251.97 96.5008 1248.72 108.677 1242.22 119.885C1235.85 130.955 1227.07 139.741 1215.86 146.245C1204.79 152.61 1192.68 155.792 1179.54 155.792H1158.36L1122.87 110.13V156.208L1081.78 155.792V10.7113H1179.54ZM1173.72 120.508C1184.1 120.508 1192.89 116.91 1200.08 109.715C1207.42 102.382 1211.08 93.595 1211.08 83.3556C1211.08 72.9779 1207.42 64.1914 1200.08 56.9961C1192.89 49.6625 1184.1 45.9957 1173.72 45.9957H1122.87V96.4316L1143.21 120.508H1173.72ZM1355.63 10.7113H1396.73V35.8255L1345.46 104.941V155.792H1304.37V125.074L1324.92 104.941H1301.67L1250.4 35.8255V10.7113H1291.5V69.657H1355.63V10.7113ZM1624.83 10.7113V45.9957H1586.02L1584.36 47.8637V155.792H1543.26V80.6574L1578.55 45.9957H1501.34V10.7113H1624.83ZM1687.79 10.7113H1795.92V60.1094C1795.92 70.3488 1792.88 79.5505 1786.79 87.7143L1744.66 144.584C1739.12 152.056 1731.72 155.792 1722.45 155.792H1614.31V106.394C1614.31 96.1549 1617.36 86.9533 1623.44 78.7894L1665.58 21.9193C1671.11 14.4473 1678.52 10.7113 1687.79 10.7113ZM1754.83 118.225V45.9957H1657.07L1655.41 48.2788V120.508H1753.37L1754.83 118.225Z"/>
</mask>
<path d="M120.382 65.2983V61.2286H116.312V65.2983H120.382ZM161.478 65.2983H165.548V61.2286H161.478V65.2983ZM161.478 155.792V159.862H165.548V155.792H161.478ZM120.382 155.792H116.312V159.862H120.382V155.792ZM120.382 119.47H124.452V107.059L117.103 117.06L120.382 119.47ZM100.249 146.868L103.514 149.297L103.521 149.287L103.529 149.277L100.249 146.868ZM10.7929 148.113L13.6706 145.235L10.7929 148.113ZM8.92488 83.3556L12.1701 85.8115L12.1835 85.7938L12.1967 85.7759L8.92488 83.3556ZM53.7568 22.7495L57.0287 25.1697L57.0488 25.1425L57.0685 25.1149L53.7568 22.7495ZM64.1346 13.8246L62.362 10.1612L62.3382 10.1727L62.3146 10.1845L64.1346 13.8246ZM148.61 10.7113H152.679V6.64155H148.61V10.7113ZM148.61 45.9957V50.0654H152.679V45.9957H148.61ZM45.8697 45.9957V41.926H43.7973L42.5784 43.602L45.8697 45.9957ZM44.2093 48.2788L40.918 45.8851L40.1396 46.9554V48.2788H44.2093ZM44.2093 120.508H40.1396V124.578H44.2093V120.508ZM110.419 120.508V124.578H112.473L113.693 122.926L110.419 120.508ZM120.382 107.017L123.656 109.435L124.452 108.357V107.017H120.382ZM120.382 69.368H161.478V61.2286H120.382V69.368ZM157.408 65.2983V155.792H165.548V65.2983H157.408ZM161.478 151.723H120.382V159.862H161.478V151.723ZM124.452 155.792V119.47H116.312V155.792H124.452ZM117.103 117.06L96.9698 144.458L103.529 149.277L123.662 121.88L117.103 117.06ZM96.9844 144.438C93.3478 149.325 88.5555 151.723 82.1919 151.723V159.862C91.049 159.862 98.295 156.31 103.514 149.297L96.9844 144.438ZM82.1919 151.723H29.2653V159.862H82.1919V151.723ZM29.2653 151.723C23.157 151.723 18.0325 149.597 13.6706 145.235L7.91516 150.991C13.7927 156.868 20.9831 159.862 29.2653 159.862V151.723ZM13.6706 145.235C9.30874 140.873 7.18304 135.749 7.18304 129.64H-0.956383C-0.956383 137.923 2.03762 145.113 7.91516 150.991L13.6706 145.235ZM7.18304 129.64V100.79H-0.956383V129.64H7.18304ZM7.18304 100.79C7.18304 95.1611 8.83814 90.2144 12.1701 85.8115L5.67966 80.8998C1.26289 86.7363 -0.956383 93.4127 -0.956383 100.79H7.18304ZM12.1967 85.7759L57.0287 25.1697L50.485 20.3292L5.65305 80.9354L12.1967 85.7759ZM57.0685 25.1149C59.4605 21.7662 62.413 19.2355 65.9546 17.4646L62.3146 10.1845C57.554 12.5648 53.588 15.984 50.4452 20.384L57.0685 25.1149ZM65.9072 17.488C69.6514 15.6763 73.5432 14.781 77.6257 14.781V6.64155C72.299 6.64155 67.1967 7.8218 62.362 10.1612L65.9072 17.488ZM77.6257 14.781H148.61V6.64155H77.6257V14.781ZM144.54 10.7113V45.9957H152.679V10.7113H144.54ZM148.61 41.926H45.8697V50.0654H148.61V41.926ZM42.5784 43.602L40.918 45.8851L47.5006 50.6725L49.1611 48.3894L42.5784 43.602ZM40.1396 48.2788V120.508H48.279V48.2788H40.1396ZM44.2093 124.578H110.419V116.438H44.2093V124.578ZM113.693 122.926L123.656 109.435L117.108 104.599L107.146 118.09L113.693 122.926ZM124.452 107.017V65.2983H116.312V107.017H124.452ZM213.9 45.9957V41.926H211.828L210.609 43.602L213.9 45.9957ZM212.24 48.2788L208.949 45.8851L208.17 46.9554V48.2788H212.24ZM212.24 94.1485H208.17V106.474L215.509 96.5718L212.24 94.1485ZM238.392 58.8641V54.7944H236.343L235.122 56.4408L238.392 58.8641ZM300.243 58.8641H304.313V54.7944H300.243V58.8641ZM300.243 90.6201V94.6898H304.313V90.6201H300.243ZM224.278 90.6201V86.5504H222.217L220.998 88.2116L224.278 90.6201ZM212.24 107.017L208.959 104.608L208.17 105.683V107.017H212.24ZM212.24 120.508H208.17V124.578H212.24V120.508ZM297.96 120.508V124.578H300.008L301.229 122.933L297.96 120.508ZM317.055 94.7712L318.831 91.1092L315.796 89.6379L313.787 92.3463L317.055 94.7712ZM323.905 98.0921L327.175 100.514L330.095 96.5706L325.68 94.4301L323.905 98.0921ZM287.79 146.868L291.055 149.297L291.061 149.289L287.79 146.868ZM178.824 148.113L181.701 145.235L178.824 148.113ZM176.956 83.3556L180.201 85.8115L180.214 85.7938L180.227 85.7759L176.956 83.3556ZM221.787 22.7495L225.059 25.1697L225.079 25.1425L225.099 25.1149L221.787 22.7495ZM232.165 13.8246L230.393 10.1612L230.369 10.1727L230.345 10.1845L232.165 13.8246ZM329.509 10.7113H333.578V6.64155H329.509V10.7113ZM329.509 45.9957V50.0654H333.578V45.9957H329.509ZM210.609 43.602L208.949 45.8851L215.531 50.6725L217.192 48.3894L210.609 43.602ZM208.17 48.2788V94.1485H216.31V48.2788H208.17ZM215.509 96.5718L241.661 61.2874L235.122 56.4408L208.97 91.7252L215.509 96.5718ZM238.392 62.9338H300.243V54.7944H238.392V62.9338ZM296.174 58.8641V90.6201H304.313V58.8641H296.174ZM300.243 86.5504H224.278V94.6898H300.243V86.5504ZM220.998 88.2116L208.959 104.608L215.52 109.425L227.559 93.0285L220.998 88.2116ZM208.17 107.017V120.508H216.31V107.017H208.17ZM212.24 124.578H297.96V116.438H212.24V124.578ZM301.229 122.933L320.324 97.1961L313.787 92.3463L294.692 118.083L301.229 122.933ZM315.28 98.4332L322.129 101.754L325.68 94.4301L318.831 91.1092L315.28 98.4332ZM320.634 95.6703L284.519 144.446L291.061 149.289L327.175 100.514L320.634 95.6703ZM284.525 144.438C280.872 149.347 276.137 151.723 269.94 151.723V159.862C278.687 159.862 285.852 156.288 291.055 149.297L284.525 144.438ZM269.94 151.723H197.296V159.862H269.94V151.723ZM197.296 151.723C191.188 151.723 186.063 149.597 181.701 145.235L175.946 150.991C181.823 156.868 189.014 159.862 197.296 159.862V151.723ZM181.701 145.235C177.339 140.873 175.214 135.749 175.214 129.64H167.074C167.074 137.923 170.068 145.113 175.946 150.991L181.701 145.235ZM175.214 129.64V100.79H167.074V129.64H175.214ZM175.214 100.79C175.214 95.1611 176.869 90.2144 180.201 85.8115L173.71 80.8998C169.294 86.7363 167.074 93.4127 167.074 100.79H175.214ZM180.227 85.7759L225.059 25.1697L218.516 20.3292L173.684 80.9354L180.227 85.7759ZM225.099 25.1149C227.491 21.7662 230.444 19.2355 233.985 17.4646L230.345 10.1845C225.585 12.5648 221.619 15.984 218.476 20.384L225.099 25.1149ZM233.938 17.488C237.682 15.6763 241.574 14.781 245.656 14.781V6.64155C240.33 6.64155 235.227 7.8218 230.393 10.1612L233.938 17.488ZM245.656 14.781H329.509V6.64155H245.656V14.781ZM325.439 10.7113V45.9957H333.578V10.7113H325.439ZM329.509 41.926H213.9V50.0654H329.509V41.926ZM455.508 10.7113H459.577V6.64155H455.508V10.7113ZM455.508 45.9957V50.0654H459.577V45.9957H455.508ZM416.695 45.9957V41.926H414.867L413.653 43.2919L416.695 45.9957ZM415.034 47.8637L411.993 45.1599L410.965 46.3164V47.8637H415.034ZM415.034 155.792V159.862H419.104V155.792H415.034ZM373.938 155.792H369.869V159.862H373.938V155.792ZM373.938 80.6574L371.086 77.7542L369.869 78.9504V80.6574H373.938ZM409.223 45.9957L412.075 48.8989L419.173 41.926H409.223V45.9957ZM332.012 45.9957H327.943V50.0654H332.012V45.9957ZM332.012 10.7113V6.64155H327.943V10.7113H332.012ZM451.438 10.7113V45.9957H459.577V10.7113H451.438ZM455.508 41.926H416.695V50.0654H455.508V41.926ZM413.653 43.2919L411.993 45.1599L418.076 50.5674L419.737 48.6994L413.653 43.2919ZM410.965 47.8637V155.792H419.104V47.8637H410.965ZM415.034 151.723H373.938V159.862H415.034V151.723ZM378.008 155.792V80.6574H369.869V155.792H378.008ZM376.79 83.5606L412.075 48.8989L406.371 43.0924L371.086 77.7542L376.79 83.5606ZM409.223 41.926H332.012V50.0654H409.223V41.926ZM336.082 45.9957V10.7113H327.943V45.9957H336.082ZM332.012 14.781H455.508V6.64155H332.012V14.781ZM659.666 116.149V112.08H649.288L656.9 119.134L659.666 116.149ZM668.176 124.036L665.409 127.021L666.58 128.106H668.176V124.036ZM723.385 124.036H727.455V119.967H723.385V124.036ZM723.385 155.792V159.862H727.455V155.792H723.385ZM672.327 155.792L669.329 158.545L670.538 159.862H672.327V155.792ZM609.645 87.5067L612.643 84.7547L605.575 77.055V87.5067H609.645ZM609.645 155.792V159.862H613.715V155.792H609.645ZM568.549 155.792H564.479V159.862H568.549V155.792ZM568.549 65.2983V61.2286H564.479V65.2983H568.549ZM605.286 65.2983L608.028 62.291L606.863 61.2286H605.286V65.2983ZM626.457 84.601L623.715 87.6083L624.88 88.6707H626.457V84.601ZM686.441 78.997L689.318 81.8747L689.344 81.8485L689.37 81.8219L686.441 78.997ZM686.441 51.8072L683.511 54.6322L683.537 54.6588L683.563 54.6849L686.441 51.8072ZM568.549 45.9957H564.479V50.0654H568.549V45.9957ZM568.549 10.7113V6.64155H564.479V10.7113H568.549ZM717.574 26.0704L720.452 23.1926L720.452 23.1926L717.574 26.0704ZM733.141 63.8454L737.21 63.8842L737.21 63.8648V63.8454H733.141ZM716.744 100.998L719.544 103.951L719.545 103.95L716.744 100.998ZM656.9 119.134L665.409 127.021L670.942 121.052L662.432 113.165L656.9 119.134ZM668.176 128.106H723.385V119.967H668.176V128.106ZM719.316 124.036V155.792H727.455V124.036H719.316ZM723.385 151.723H672.327V159.862H723.385V151.723ZM675.325 153.04L612.643 84.7547L606.647 90.2588L669.329 158.545L675.325 153.04ZM605.575 87.5067V155.792H613.715V87.5067H605.575ZM609.645 151.723H568.549V159.862H609.645V151.723ZM572.619 155.792V65.2983H564.479V155.792H572.619ZM568.549 69.368H605.286V61.2286H568.549V69.368ZM602.544 68.3057L623.715 87.6083L629.199 81.5936L608.028 62.291L602.544 68.3057ZM626.457 88.6707H672.742V80.5312H626.457V88.6707ZM672.742 88.6707C679.192 88.6707 684.801 86.392 689.318 81.8747L683.563 76.1192C680.608 79.0739 677.085 80.5312 672.742 80.5312V88.6707ZM689.37 81.8219C693.818 77.209 696.114 71.6375 696.114 65.2983H687.975C687.975 69.4753 686.535 73.0362 683.511 76.172L689.37 81.8219ZM696.114 65.2983C696.114 58.955 693.813 53.4246 689.318 48.9295L683.563 54.6849C686.54 57.6619 687.975 61.1255 687.975 65.2983H696.114ZM689.37 48.9823C684.865 44.3101 679.24 41.926 672.742 41.926V50.0654C677.037 50.0654 680.544 51.5556 683.511 54.6322L689.37 48.9823ZM672.742 41.926H568.549V50.0654H672.742V41.926ZM572.619 45.9957V10.7113H564.479V45.9957H572.619ZM568.549 14.781H680.422V6.64155H568.549V14.781ZM680.422 14.781C693.875 14.781 705.223 19.4748 714.696 28.9481L720.452 23.1926C709.446 12.1872 696.026 6.64155 680.422 6.64155V14.781ZM714.696 28.9481C724.303 38.5551 729.071 50.1085 729.071 63.8454H737.21C737.21 47.9711 731.6 34.3412 720.452 23.1926L714.696 28.9481ZM729.071 63.8067C728.943 77.2032 723.957 88.5447 713.943 98.0454L719.545 103.95C731.116 92.9721 737.061 79.5454 737.21 63.8842L729.071 63.8067ZM713.944 98.0444C704.044 107.429 692.385 112.08 678.761 112.08V120.219C694.471 120.219 708.134 114.768 719.544 103.951L713.944 98.0444ZM678.761 112.08H659.666V120.219H678.761V112.08ZM782.853 45.9957V41.926H780.781L779.562 43.602L782.853 45.9957ZM781.193 48.2788L777.902 45.8851L777.123 46.9554V48.2788H781.193ZM781.193 94.1485H777.123V106.474L784.462 96.5718L781.193 94.1485ZM807.345 58.8641V54.7944H805.296L804.075 56.4408L807.345 58.8641ZM869.196 58.8641H873.266V54.7944H869.196V58.8641ZM869.196 90.6201V94.6898H873.266V90.6201H869.196ZM793.231 90.6201V86.5504H791.17L789.951 88.2116L793.231 90.6201ZM781.193 107.017L777.912 104.608L777.123 105.683V107.017H781.193ZM781.193 120.508H777.123V124.578H781.193V120.508ZM866.913 120.508V124.578H868.961L870.182 122.933L866.913 120.508ZM886.008 94.7712L887.784 91.1092L884.749 89.6379L882.74 92.3463L886.008 94.7712ZM892.858 98.0921L896.128 100.514L899.048 96.5706L894.633 94.4301L892.858 98.0921ZM856.743 146.868L860.008 149.297L860.014 149.289L856.743 146.868ZM747.776 148.113L750.654 145.235L747.776 148.113ZM745.908 83.3556L749.154 85.8115L749.167 85.7938L749.18 85.7759L745.908 83.3556ZM790.74 22.7495L794.012 25.1697L794.032 25.1425L794.052 25.1149L790.74 22.7495ZM801.118 13.8246L799.346 10.1612L799.322 10.1727L799.298 10.1845L801.118 13.8246ZM898.462 10.7113H902.531V6.64155H898.462V10.7113ZM898.462 45.9957V50.0654H902.531V45.9957H898.462ZM779.562 43.602L777.902 45.8851L784.484 50.6725L786.145 48.3894L779.562 43.602ZM777.123 48.2788V94.1485H785.263V48.2788H777.123ZM784.462 96.5718L810.614 61.2874L804.075 56.4408L777.923 91.7252L784.462 96.5718ZM807.345 62.9338H869.196V54.7944H807.345V62.9338ZM865.127 58.8641V90.6201H873.266V58.8641H865.127ZM869.196 86.5504H793.231V94.6898H869.196V86.5504ZM789.951 88.2116L777.912 104.608L784.473 109.425L796.512 93.0285L789.951 88.2116ZM777.123 107.017V120.508H785.263V107.017H777.123ZM781.193 124.578H866.913V116.438H781.193V124.578ZM870.182 122.933L889.277 97.1961L882.74 92.3463L863.645 118.083L870.182 122.933ZM884.233 98.4332L891.082 101.754L894.633 94.4301L887.784 91.1092L884.233 98.4332ZM889.587 95.6703L853.472 144.446L860.014 149.289L896.128 100.514L889.587 95.6703ZM853.478 144.438C849.825 149.347 845.09 151.723 838.893 151.723V159.862C847.64 159.862 854.805 156.288 860.008 149.297L853.478 144.438ZM838.893 151.723H766.249V159.862H838.893V151.723ZM766.249 151.723C760.141 151.723 755.016 149.597 750.654 145.235L744.899 150.991C750.776 156.868 757.967 159.862 766.249 159.862V151.723ZM750.654 145.235C746.292 140.873 744.167 135.749 744.167 129.64H736.027C736.027 137.923 739.021 145.113 744.899 150.991L750.654 145.235ZM744.167 129.64V100.79H736.027V129.64H744.167ZM744.167 100.79C744.167 95.1611 745.822 90.2144 749.154 85.8115L742.663 80.8998C738.246 86.7363 736.027 93.4127 736.027 100.79H744.167ZM749.18 85.7759L794.012 25.1697L787.469 20.3292L742.637 80.9354L749.18 85.7759ZM794.052 25.1149C796.444 21.7662 799.397 19.2355 802.938 17.4646L799.298 10.1845C794.538 12.5648 790.572 15.984 787.429 20.384L794.052 25.1149ZM802.891 17.488C806.635 15.6763 810.527 14.781 814.609 14.781V6.64155C809.283 6.64155 804.18 7.8218 799.346 10.1612L802.891 17.488ZM814.609 14.781H898.462V6.64155H814.609V14.781ZM894.392 10.7113V45.9957H902.531V10.7113H894.392ZM898.462 41.926H782.853V50.0654H898.462V41.926ZM1063.48 10.7113L1067.55 10.7345L1067.57 6.64155H1063.48V10.7113ZM1062.65 155.792V159.862H1066.7L1066.72 155.816L1062.65 155.792ZM1021.55 155.792H1017.49V159.862H1021.55V155.792ZM1021.55 116.149H1025.62V112.08H1021.55V116.149ZM961.364 116.149V112.08H959.313L958.093 113.728L961.364 116.149ZM945.382 137.735L942.111 135.313L941.312 136.393V137.735H945.382ZM945.382 155.792V159.862H949.452V155.792H945.382ZM904.286 155.792H900.216V159.862H904.286V155.792ZM913.419 78.7894L916.681 81.2224L916.689 81.2121L913.419 78.7894ZM955.552 21.9193L958.822 24.3419L958.823 24.3417L955.552 21.9193ZM1021.55 84.601V88.6707H1025.62V84.601H1021.55ZM1021.55 45.9957H1025.62V41.926H1021.55V45.9957ZM947.043 45.9957V41.926H944.97L943.751 43.602L947.043 45.9957ZM945.382 48.2788L942.091 45.8851L941.312 46.9554V48.2788H945.382ZM945.382 125.074H941.312V137.387L948.65 127.5L945.382 125.074ZM969.874 92.073L966.618 89.6311L966.612 89.6393L966.606 89.6476L969.874 92.073ZM1062.65 14.781H1063.48V6.64155H1062.65V14.781ZM1059.41 10.688L1058.58 155.769L1066.72 155.816L1067.55 10.7345L1059.41 10.688ZM1062.65 151.723H1021.55V159.862H1062.65V151.723ZM1025.62 155.792V116.149H1017.49V155.792H1025.62ZM1021.55 112.08H961.364V120.219H1021.55V112.08ZM958.093 113.728L942.111 135.313L948.653 140.157L964.635 118.571L958.093 113.728ZM941.312 137.735V155.792H949.452V137.735H941.312ZM945.382 151.723H904.286V159.862H945.382V151.723ZM908.356 155.792V106.394H900.216V155.792H908.356ZM908.356 106.394C908.356 97.0265 911.12 88.6793 916.681 81.2224L910.156 76.3564C903.541 85.2272 900.216 95.2832 900.216 106.394H908.356ZM916.689 81.2121L958.822 24.3419L952.282 19.4966L910.149 76.3667L916.689 81.2121ZM958.823 24.3417C963.593 17.9022 969.784 14.781 977.761 14.781V6.64155C967.196 6.64155 958.582 10.9924 952.282 19.4968L958.823 24.3417ZM977.761 14.781H1062.65V6.64155H977.761V14.781ZM1025.62 84.601V45.9957H1017.49V84.601H1025.62ZM1021.55 41.926H947.043V50.0654H1021.55V41.926ZM943.751 43.602L942.091 45.8851L948.673 50.6725L950.334 48.3894L943.751 43.602ZM941.312 48.2788V125.074H949.452V48.2788H941.312ZM948.65 127.5L973.142 94.4983L966.606 89.6476L942.114 122.649L948.65 127.5ZM973.129 94.5148C976.097 90.5582 979.872 88.6707 984.818 88.6707V80.5312C977.31 80.5312 971.122 83.625 966.618 89.6311L973.129 94.5148ZM984.818 88.6707H1021.55V80.5312H984.818V88.6707ZM1215.86 20.4664L1213.8 23.9753L1213.81 23.9809L1213.82 23.9864L1215.86 20.4664ZM1242.22 47.0334L1238.68 49.0432L1238.69 49.0692L1238.71 49.095L1242.22 47.0334ZM1242.22 119.885L1238.7 117.843L1238.69 117.85L1238.69 117.857L1242.22 119.885ZM1215.86 146.245L1217.89 149.773L1217.89 149.769L1217.9 149.765L1215.86 146.245ZM1158.36 155.792L1155.15 158.29L1156.37 159.862H1158.36V155.792ZM1122.87 110.13L1126.09 107.633L1118.8 98.2629V110.13H1122.87ZM1122.87 156.208L1122.83 160.277L1126.94 160.319V156.208H1122.87ZM1081.78 155.792H1077.71V159.821L1081.74 159.862L1081.78 155.792ZM1081.78 10.7113V6.64155H1077.71V10.7113H1081.78ZM1200.08 109.715L1197.21 106.837L1200.08 109.715ZM1200.08 56.9961L1197.18 59.8463L1197.21 59.874L1197.23 59.9011L1200.08 56.9961ZM1122.87 45.9957V41.926H1118.8V45.9957H1122.87ZM1122.87 96.4316H1118.8V97.9206L1119.76 99.058L1122.87 96.4316ZM1143.21 120.508L1140.1 123.134L1141.32 124.578H1143.21V120.508ZM1179.54 14.781C1191.97 14.781 1203.37 17.8482 1213.8 23.9753L1217.92 16.9574C1206.21 10.0778 1193.39 6.64155 1179.54 6.64155V14.781ZM1213.82 23.9864C1224.4 30.1299 1232.67 38.4658 1238.68 49.0432L1245.76 45.0237C1239.03 33.1851 1229.73 23.8096 1217.9 16.9463L1213.82 23.9864ZM1238.71 49.095C1244.84 59.5241 1247.9 70.9172 1247.9 83.3556H1256.04C1256.04 69.5038 1252.61 56.682 1245.73 44.9719L1238.71 49.095ZM1247.9 83.3556C1247.9 95.7943 1244.83 107.265 1238.7 117.843L1245.74 121.928C1252.61 110.09 1256.04 97.2073 1256.04 83.3556H1247.9ZM1238.69 117.857C1232.69 128.298 1224.42 136.574 1213.82 142.725L1217.9 149.765C1229.72 142.909 1239.02 133.612 1245.75 121.914L1238.69 117.857ZM1213.83 142.717C1203.4 148.716 1191.99 151.723 1179.54 151.723V159.862C1193.37 159.862 1206.18 156.504 1217.89 149.773L1213.83 142.717ZM1179.54 151.723H1158.36V159.862H1179.54V151.723ZM1161.58 153.295L1126.09 107.633L1119.66 112.628L1155.15 158.29L1161.58 153.295ZM1118.8 110.13V156.208H1126.94V110.13H1118.8ZM1122.91 152.138L1081.82 151.723L1081.74 159.862L1122.83 160.277L1122.91 152.138ZM1085.85 155.792V10.7113H1077.71V155.792H1085.85ZM1081.78 14.781H1179.54V6.64155H1081.78V14.781ZM1173.72 124.578C1185.16 124.578 1194.99 120.568 1202.96 112.593L1197.21 106.837C1190.79 113.253 1183.05 116.438 1173.72 116.438V124.578ZM1202.96 112.593C1211.05 104.507 1215.15 94.6899 1215.15 83.3556H1207.01C1207.01 92.5002 1203.79 100.256 1197.21 106.837L1202.96 112.593ZM1215.15 83.3556C1215.15 71.8975 1211.06 62.0604 1202.93 54.0911L1197.23 59.9011C1203.78 66.3223 1207.01 74.0582 1207.01 83.3556H1215.15ZM1202.99 54.1459C1195.02 46.0234 1185.18 41.926 1173.72 41.926V50.0654C1183.02 50.0654 1190.76 53.3016 1197.18 59.8463L1202.99 54.1459ZM1173.72 41.926H1122.87V50.0654H1173.72V41.926ZM1118.8 45.9957V96.4316H1126.94V45.9957H1118.8ZM1119.76 99.058L1140.1 123.134L1146.32 117.882L1125.98 93.8052L1119.76 99.058ZM1143.21 124.578H1173.72V116.438H1143.21V124.578ZM1355.63 10.7113V6.64155H1351.56V10.7113H1355.63ZM1396.73 10.7113H1400.8V6.64155H1396.73V10.7113ZM1396.73 35.8255L1400 38.25L1400.8 37.17V35.8255H1396.73ZM1345.46 104.941L1342.2 102.517L1341.39 103.597V104.941H1345.46ZM1345.46 155.792V159.862H1349.53V155.792H1345.46ZM1304.37 155.792H1300.3V159.862H1304.37V155.792ZM1304.37 125.074L1301.52 122.167L1300.3 123.364V125.074H1304.37ZM1324.92 104.941L1327.76 107.848L1334.89 100.872H1324.92V104.941ZM1301.67 104.941L1298.4 107.366L1299.62 109.011H1301.67V104.941ZM1250.4 35.8255H1246.33V37.17L1247.14 38.25L1250.4 35.8255ZM1250.4 10.7113V6.64155H1246.33V10.7113H1250.4ZM1291.5 10.7113H1295.57V6.64155H1291.5V10.7113ZM1291.5 69.657H1287.43V73.7267H1291.5V69.657ZM1355.63 69.657V73.7267H1359.7V69.657H1355.63ZM1355.63 14.781H1396.73V6.64155H1355.63V14.781ZM1392.66 10.7113V35.8255H1400.8V10.7113H1392.66ZM1393.46 33.4009L1342.2 102.517L1348.73 107.366L1400 38.25L1393.46 33.4009ZM1341.39 104.941V155.792H1349.53V104.941H1341.39ZM1345.46 151.723H1304.37V159.862H1345.46V151.723ZM1308.44 155.792V125.074H1300.3V155.792H1308.44ZM1307.22 127.981L1327.76 107.848L1322.07 102.034L1301.52 122.167L1307.22 127.981ZM1324.92 100.872H1301.67V109.011H1324.92V100.872ZM1304.94 102.517L1253.67 33.4009L1247.14 38.25L1298.4 107.366L1304.94 102.517ZM1254.47 35.8255V10.7113H1246.33V35.8255H1254.47ZM1250.4 14.781H1291.5V6.64155H1250.4V14.781ZM1287.43 10.7113V69.657H1295.57V10.7113H1287.43ZM1291.5 73.7267H1355.63V65.5873H1291.5V73.7267ZM1359.7 69.657V10.7113H1351.56V69.657H1359.7ZM1624.83 10.7113H1628.9V6.64155H1624.83V10.7113ZM1624.83 45.9957V50.0654H1628.9V45.9957H1624.83ZM1586.02 45.9957V41.926H1584.19L1582.98 43.2919L1586.02 45.9957ZM1584.36 47.8637L1581.32 45.1599L1580.29 46.3164V47.8637H1584.36ZM1584.36 155.792V159.862H1588.43V155.792H1584.36ZM1543.26 155.792H1539.19V159.862H1543.26V155.792ZM1543.26 80.6574L1540.41 77.7542L1539.19 78.9504V80.6574H1543.26ZM1578.55 45.9957L1581.4 48.8989L1588.5 41.926H1578.55V45.9957ZM1501.34 45.9957H1497.27V50.0654H1501.34V45.9957ZM1501.34 10.7113V6.64155H1497.27V10.7113H1501.34ZM1620.76 10.7113V45.9957H1628.9V10.7113H1620.76ZM1624.83 41.926H1586.02V50.0654H1624.83V41.926ZM1582.98 43.2919L1581.32 45.1599L1587.4 50.5674L1589.06 48.6994L1582.98 43.2919ZM1580.29 47.8637V155.792H1588.43V47.8637H1580.29ZM1584.36 151.723H1543.26V159.862H1584.36V151.723ZM1547.33 155.792V80.6574H1539.19V155.792H1547.33ZM1546.11 83.5606L1581.4 48.8989L1575.69 43.0924L1540.41 77.7542L1546.11 83.5606ZM1578.55 41.926H1501.34V50.0654H1578.55V41.926ZM1505.4 45.9957V10.7113H1497.27V45.9957H1505.4ZM1501.34 14.781H1624.83V6.64155H1501.34V14.781ZM1795.92 10.7113H1799.99V6.64155H1795.92V10.7113ZM1786.79 87.7143L1783.53 85.2813L1783.52 85.2916L1786.79 87.7143ZM1744.66 144.584L1741.39 142.162L1741.39 142.162L1744.66 144.584ZM1614.31 155.792H1610.24V159.862H1614.31V155.792ZM1623.44 78.7894L1626.71 81.2224L1626.71 81.2121L1623.44 78.7894ZM1665.58 21.9193L1668.85 24.3419L1668.85 24.3417L1665.58 21.9193ZM1754.83 118.225L1758.26 120.41L1758.9 119.41V118.225H1754.83ZM1754.83 45.9957H1758.9V41.926H1754.83V45.9957ZM1657.07 45.9957V41.926H1655L1653.78 43.602L1657.07 45.9957ZM1655.41 48.2788L1652.12 45.8851L1651.34 46.9554V48.2788H1655.41ZM1655.41 120.508H1651.34V124.578H1655.41V120.508ZM1753.37 120.508V124.578H1755.61L1756.81 122.693L1753.37 120.508ZM1687.79 14.781H1795.92V6.64155H1687.79V14.781ZM1791.85 10.7113V60.1094H1799.99V10.7113H1791.85ZM1791.85 60.1094C1791.85 69.4772 1789.09 77.8244 1783.53 85.2813L1790.05 90.1473C1796.67 81.2765 1799.99 71.2205 1799.99 60.1094H1791.85ZM1783.52 85.2916L1741.39 142.162L1747.93 147.007L1790.06 90.137L1783.52 85.2916ZM1741.39 142.162C1736.62 148.602 1730.42 151.723 1722.45 151.723V159.862C1733.01 159.862 1741.63 155.511 1747.93 147.007L1741.39 142.162ZM1722.45 151.723H1614.31V159.862H1722.45V151.723ZM1618.38 155.792V106.394H1610.24V155.792H1618.38ZM1618.38 106.394C1618.38 97.0265 1621.15 88.6793 1626.71 81.2224L1620.18 76.3564C1613.57 85.2272 1610.24 95.2832 1610.24 106.394H1618.38ZM1626.71 81.2121L1668.85 24.3419L1662.31 19.4966L1620.17 76.3667L1626.71 81.2121ZM1668.85 24.3417C1673.62 17.9022 1679.81 14.781 1687.79 14.781V6.64155C1677.22 6.64155 1668.61 10.9924 1662.31 19.4968L1668.85 24.3417ZM1758.9 118.225V45.9957H1750.76V118.225H1758.9ZM1754.83 41.926H1657.07V50.0654H1754.83V41.926ZM1653.78 43.602L1652.12 45.8851L1658.7 50.6725L1660.36 48.3894L1653.78 43.602ZM1651.34 48.2788V120.508H1659.48V48.2788H1651.34ZM1655.41 124.578H1753.37V116.438H1655.41V124.578ZM1756.81 122.693L1758.26 120.41L1751.39 116.04L1749.94 118.323L1756.81 122.693Z" fill="black" fill-opacity="0.05" mask="url(#path-1-outside-1_127_6)"/>
<mask id="path-3-outside-2_127_6" maskUnits="userSpaceOnUse" x="276.672" y="258.325" width="1275" height="155" fill="black">
<rect fill="white" x="276.672" y="258.325" width="1275" height="155"/>
<path d="M427.301 347.096L434.15 350.417L398.035 399.193C393.607 405.143 387.658 408.118 380.186 408.118H307.541C300.346 408.118 294.188 405.558 289.069 400.438C283.949 395.318 281.389 389.161 281.389 381.966V263.036H322.485V372.833H408.206L427.301 347.096ZM479.073 298.321L477.412 300.604V346.474L503.564 311.189H565.416V342.945H489.45L477.412 359.342V372.833H563.133L582.228 347.096L589.077 350.417L552.962 399.193C548.535 405.143 542.585 408.118 535.113 408.118H462.468C455.273 408.118 449.116 405.558 443.996 400.438C438.876 395.318 436.316 389.161 436.316 381.966V353.115C436.316 346.612 438.253 340.801 442.128 335.681L486.96 275.075C489.727 271.2 493.186 268.225 497.338 266.15C501.627 264.074 506.124 263.036 510.829 263.036H594.681V298.321H479.073ZM758.87 263.036L759.7 408.118H673.98C664.709 408.118 657.306 404.382 651.772 396.91L609.638 340.039C603.55 331.876 600.505 322.674 600.505 312.435V263.036H641.601V370.55L643.262 372.833H717.774V263.036H758.87ZM814.526 298.321L812.865 300.604V346.474L839.017 311.189H900.869V342.945H824.904L812.865 359.342V372.833H898.586L917.681 347.096L924.53 350.417L888.416 399.193C883.988 405.143 878.038 408.118 870.566 408.118H797.921C790.726 408.118 784.569 405.558 779.449 400.438C774.329 395.318 771.769 389.161 771.769 381.966V353.115C771.769 346.612 773.707 340.801 777.581 335.681L822.413 275.075C825.18 271.2 828.64 268.225 832.791 266.15C837.08 264.074 841.577 263.036 846.282 263.036H930.134V298.321H814.526ZM1087.06 347.096L1093.91 350.417L1057.79 399.193C1053.37 405.143 1047.42 408.118 1039.94 408.118H967.3C960.104 408.118 953.947 405.558 948.827 400.438C943.707 395.318 941.148 389.161 941.148 381.966V263.036H982.244V372.833H1067.96L1087.06 347.096ZM1323.76 263.036H1364.85V408.118L1323.76 408.533V359.135L1294.08 399.193C1289.65 405.143 1283.7 408.118 1276.23 408.118H1231.81C1224.62 408.118 1218.46 405.558 1213.34 400.438C1208.22 395.318 1205.66 389.161 1205.66 381.966V263.036H1246.75V372.833H1304.25L1323.34 347.096H1323.76V263.036ZM1531.84 278.396C1542.21 288.773 1547.4 301.365 1547.4 316.171C1547.26 330.699 1541.87 343.084 1531.21 353.323C1520.56 363.424 1507.83 368.475 1493.02 368.475H1464.38L1439.47 345.851L1423.91 331.53V408.118H1382.81V317.624H1419.55L1440.72 336.926H1487C1492.4 336.926 1496.97 335.058 1500.7 331.322C1504.44 327.448 1506.31 322.882 1506.31 317.624C1506.31 312.365 1504.44 307.868 1500.7 304.132C1496.97 300.258 1492.4 298.321 1487 298.321H1382.81V263.036H1494.68C1509.21 263.036 1521.6 268.156 1531.84 278.396Z"/>
</mask>
<path d="M427.301 347.096L429.076 343.434L426.042 341.963L424.032 344.671L427.301 347.096ZM434.15 350.417L437.421 352.839L440.34 348.896L435.925 346.755L434.15 350.417ZM398.035 399.193L401.3 401.622L401.306 401.615L398.035 399.193ZM289.069 400.438L291.946 397.56L289.069 400.438ZM281.389 263.036V258.967H277.319V263.036H281.389ZM322.485 263.036H326.555V258.967H322.485V263.036ZM322.485 372.833H318.415V376.903H322.485V372.833ZM408.206 372.833V376.903H410.254L411.474 375.258L408.206 372.833ZM425.525 350.758L432.374 354.079L435.925 346.755L429.076 343.434L425.525 350.758ZM430.879 347.996L394.765 396.771L401.306 401.615L437.421 352.839L430.879 347.996ZM394.77 396.763C391.117 401.672 386.383 404.048 380.186 404.048V412.187C388.932 412.187 396.098 408.613 401.3 401.622L394.77 396.763ZM380.186 404.048H307.541V412.187H380.186V404.048ZM307.541 404.048C301.433 404.048 296.308 401.922 291.946 397.56L286.191 403.316C292.069 409.193 299.259 412.187 307.541 412.187V404.048ZM291.946 397.56C287.585 393.199 285.459 388.074 285.459 381.966H277.319C277.319 390.248 280.313 397.438 286.191 403.316L291.946 397.56ZM285.459 381.966V263.036H277.319V381.966H285.459ZM281.389 267.106H322.485V258.967H281.389V267.106ZM318.415 263.036V372.833H326.555V263.036H318.415ZM322.485 376.903H408.206V368.764H322.485V376.903ZM411.474 375.258L430.569 349.521L424.032 344.671L404.937 370.408L411.474 375.258ZM479.073 298.321V294.251H477L475.781 295.927L479.073 298.321ZM477.412 300.604L474.121 298.21L473.343 299.281V300.604H477.412ZM477.412 346.474H473.343V358.799L480.682 348.897L477.412 346.474ZM503.564 311.189V307.12H501.515L500.295 308.766L503.564 311.189ZM565.416 311.189H569.485V307.12H565.416V311.189ZM565.416 342.945V347.015H569.485V342.945H565.416ZM489.45 342.945V338.876H487.39L486.17 340.537L489.45 342.945ZM477.412 359.342L474.132 356.934L473.343 358.009V359.342H477.412ZM477.412 372.833H473.343V376.903H477.412V372.833ZM563.133 372.833V376.903H565.181L566.401 375.258L563.133 372.833ZM582.228 347.096L584.003 343.434L580.969 341.963L578.959 344.671L582.228 347.096ZM589.077 350.417L592.348 352.839L595.267 348.896L590.853 346.755L589.077 350.417ZM552.962 399.193L556.227 401.622L556.233 401.615L552.962 399.193ZM443.996 400.438L446.874 397.56L443.996 400.438ZM442.128 335.681L445.373 338.137L445.386 338.119L445.4 338.101L442.128 335.681ZM486.96 275.075L490.232 277.495L490.252 277.468L490.271 277.44L486.96 275.075ZM497.338 266.15L495.565 262.486L495.541 262.498L495.518 262.51L497.338 266.15ZM594.681 263.036H598.751V258.967H594.681V263.036ZM594.681 298.321V302.391H598.751V298.321H594.681ZM475.781 295.927L474.121 298.21L480.704 302.998L482.364 300.715L475.781 295.927ZM473.343 300.604V346.474H481.482V300.604H473.343ZM480.682 348.897L506.834 313.613L500.295 308.766L474.143 344.05L480.682 348.897ZM503.564 315.259H565.416V307.12H503.564V315.259ZM561.346 311.189V342.945H569.485V311.189H561.346ZM565.416 338.876H489.45V347.015H565.416V338.876ZM486.17 340.537L474.132 356.934L480.693 361.751L492.731 345.354L486.17 340.537ZM473.343 359.342V372.833H481.482V359.342H473.343ZM477.412 376.903H563.133V368.764H477.412V376.903ZM566.401 375.258L585.496 349.521L578.959 344.671L559.864 370.408L566.401 375.258ZM580.452 350.758L587.301 354.079L590.853 346.755L584.003 343.434L580.452 350.758ZM585.806 347.996L549.692 396.771L556.233 401.615L592.348 352.839L585.806 347.996ZM549.698 396.763C546.044 401.672 541.31 404.048 535.113 404.048V412.187C543.86 412.187 551.025 408.613 556.227 401.622L549.698 396.763ZM535.113 404.048H462.468V412.187H535.113V404.048ZM462.468 404.048C456.36 404.048 451.235 401.922 446.874 397.56L441.118 403.316C446.996 409.193 454.186 412.187 462.468 412.187V404.048ZM446.874 397.56C442.512 393.199 440.386 388.074 440.386 381.966H432.247C432.247 390.248 435.241 397.438 441.118 403.316L446.874 397.56ZM440.386 381.966V353.115H432.247V381.966H440.386ZM440.386 353.115C440.386 347.486 442.041 342.54 445.373 338.137L438.883 333.225C434.466 339.061 432.247 345.738 432.247 353.115H440.386ZM445.4 338.101L490.232 277.495L483.688 272.654L438.856 333.261L445.4 338.101ZM490.271 277.44C492.663 274.091 495.616 271.561 499.158 269.79L495.518 262.51C490.757 264.89 486.791 268.309 483.648 272.709L490.271 277.44ZM499.11 269.813C502.854 268.001 506.746 267.106 510.829 267.106V258.967C505.502 258.967 500.4 260.147 495.565 262.486L499.11 269.813ZM510.829 267.106H594.681V258.967H510.829V267.106ZM590.611 263.036V298.321H598.751V263.036H590.611ZM594.681 294.251H479.073V302.391H594.681V294.251ZM758.87 263.036L762.94 263.013L762.917 258.967H758.87V263.036ZM759.7 408.118V412.187H763.794L763.77 408.094L759.7 408.118ZM651.772 396.91L655.042 394.487L655.042 394.487L651.772 396.91ZM609.638 340.039L612.908 337.617L612.9 337.607L609.638 340.039ZM600.505 263.036V258.967H596.436V263.036H600.505ZM641.601 263.036H645.671V258.967H641.601V263.036ZM641.601 370.55H637.532V371.874L638.31 372.944L641.601 370.55ZM643.262 372.833L639.971 375.227L641.189 376.903H643.262V372.833ZM717.774 372.833V376.903H721.844V372.833H717.774ZM717.774 263.036V258.967H713.705V263.036H717.774ZM754.801 263.06L755.631 408.141L763.77 408.094L762.94 263.013L754.801 263.06ZM759.7 404.048H673.98V412.187H759.7V404.048ZM673.98 404.048C666.003 404.048 659.812 400.927 655.042 394.487L648.501 399.332C654.801 407.837 663.415 412.187 673.98 412.187V404.048ZM655.042 394.487L612.908 337.617L606.368 342.462L648.502 399.332L655.042 394.487ZM612.9 337.607C607.339 330.15 604.575 321.802 604.575 312.435H596.436C596.436 323.546 599.76 333.602 606.376 342.472L612.9 337.607ZM604.575 312.435V263.036H596.436V312.435H604.575ZM600.505 267.106H641.601V258.967H600.505V267.106ZM637.532 263.036V370.55H645.671V263.036H637.532ZM638.31 372.944L639.971 375.227L646.553 370.44L644.893 368.156L638.31 372.944ZM643.262 376.903H717.774V368.764H643.262V376.903ZM721.844 372.833V263.036H713.705V372.833H721.844ZM717.774 267.106H758.87V258.967H717.774V267.106ZM814.526 298.321V294.251H812.453L811.235 295.927L814.526 298.321ZM812.865 300.604L809.574 298.21L808.796 299.281V300.604H812.865ZM812.865 346.474H808.796V358.799L816.135 348.897L812.865 346.474ZM839.017 311.189V307.12H836.968L835.748 308.766L839.017 311.189ZM900.869 311.189H904.939V307.12H900.869V311.189ZM900.869 342.945V347.015H904.939V342.945H900.869ZM824.904 342.945V338.876H822.843L821.623 340.537L824.904 342.945ZM812.865 359.342L809.585 356.934L808.796 358.009V359.342H812.865ZM812.865 372.833H808.796V376.903H812.865V372.833ZM898.586 372.833V376.903H900.634L901.854 375.258L898.586 372.833ZM917.681 347.096L919.456 343.434L916.422 341.963L914.412 344.671L917.681 347.096ZM924.53 350.417L927.801 352.839L930.721 348.896L926.306 346.755L924.53 350.417ZM888.416 399.193L891.68 401.622L891.686 401.615L888.416 399.193ZM779.449 400.438L782.327 397.56L779.449 400.438ZM777.581 335.681L780.826 338.137L780.84 338.119L780.853 338.101L777.581 335.681ZM822.413 275.075L825.685 277.495L825.705 277.468L825.725 277.44L822.413 275.075ZM832.791 266.15L831.018 262.486L830.994 262.498L830.971 262.51L832.791 266.15ZM930.134 263.036H934.204V258.967H930.134V263.036ZM930.134 298.321V302.391H934.204V298.321H930.134ZM811.235 295.927L809.574 298.21L816.157 302.998L817.817 300.715L811.235 295.927ZM808.796 300.604V346.474H816.935V300.604H808.796ZM816.135 348.897L842.287 313.613L835.748 308.766L809.596 344.05L816.135 348.897ZM839.017 315.259H900.869V307.12H839.017V315.259ZM896.799 311.189V342.945H904.939V311.189H896.799ZM900.869 338.876H824.904V347.015H900.869V338.876ZM821.623 340.537L809.585 356.934L816.146 361.751L828.184 345.354L821.623 340.537ZM808.796 359.342V372.833H816.935V359.342H808.796ZM812.865 376.903H898.586V368.764H812.865V376.903ZM901.854 375.258L920.949 349.521L914.412 344.671L895.317 370.408L901.854 375.258ZM915.905 350.758L922.755 354.079L926.306 346.755L919.456 343.434L915.905 350.758ZM921.259 347.996L885.145 396.771L891.686 401.615L927.801 352.839L921.259 347.996ZM885.151 396.763C881.498 401.672 876.763 404.048 870.566 404.048V412.187C879.313 412.187 886.478 408.613 891.68 401.622L885.151 396.763ZM870.566 404.048H797.921V412.187H870.566V404.048ZM797.921 404.048C791.813 404.048 786.689 401.922 782.327 397.56L776.571 403.316C782.449 409.193 789.639 412.187 797.921 412.187V404.048ZM782.327 397.56C777.965 393.199 775.839 388.074 775.839 381.966H767.7C767.7 390.248 770.694 397.438 776.571 403.316L782.327 397.56ZM775.839 381.966V353.115H767.7V381.966H775.839ZM775.839 353.115C775.839 347.486 777.494 342.54 780.826 338.137L774.336 333.225C769.919 339.061 767.7 345.738 767.7 353.115H775.839ZM780.853 338.101L825.685 277.495L819.141 272.654L774.309 333.261L780.853 338.101ZM825.725 277.44C828.117 274.091 831.069 271.561 834.611 269.79L830.971 262.51C826.21 264.89 822.244 268.309 819.101 272.709L825.725 277.44ZM834.563 269.813C838.308 268.001 842.199 267.106 846.282 267.106V258.967C840.955 258.967 835.853 260.147 831.018 262.486L834.563 269.813ZM846.282 267.106H930.134V258.967H846.282V267.106ZM926.064 263.036V298.321H934.204V263.036H926.064ZM930.134 294.251H814.526V302.391H930.134V294.251ZM1087.06 347.096L1088.83 343.434L1085.8 341.963L1083.79 344.671L1087.06 347.096ZM1093.91 350.417L1097.18 352.839L1100.1 348.896L1095.68 346.755L1093.91 350.417ZM1057.79 399.193L1061.06 401.622L1061.06 401.615L1057.79 399.193ZM948.827 400.438L951.705 397.56L948.827 400.438ZM941.148 263.036V258.967H937.078V263.036H941.148ZM982.244 263.036H986.313V258.967H982.244V263.036ZM982.244 372.833H978.174V376.903H982.244V372.833ZM1067.96 372.833V376.903H1070.01L1071.23 375.258L1067.96 372.833ZM1085.28 350.758L1092.13 354.079L1095.68 346.755L1088.83 343.434L1085.28 350.758ZM1090.64 347.996L1054.52 396.771L1061.06 401.615L1097.18 352.839L1090.64 347.996ZM1054.53 396.763C1050.88 401.672 1046.14 404.048 1039.94 404.048V412.187C1048.69 412.187 1055.86 408.613 1061.06 401.622L1054.53 396.763ZM1039.94 404.048H967.3V412.187H1039.94V404.048ZM967.3 404.048C961.191 404.048 956.067 401.922 951.705 397.56L945.949 403.316C951.827 409.193 959.017 412.187 967.3 412.187V404.048ZM951.705 397.56C947.343 393.199 945.217 388.074 945.217 381.966H937.078C937.078 390.248 940.072 397.438 945.949 403.316L951.705 397.56ZM945.217 381.966V263.036H937.078V381.966H945.217ZM941.148 267.106H982.244V258.967H941.148V267.106ZM978.174 263.036V372.833H986.313V263.036H978.174ZM982.244 376.903H1067.96V368.764H982.244V376.903ZM1071.23 375.258L1090.33 349.521L1083.79 344.671L1064.7 370.408L1071.23 375.258ZM1323.76 263.036V258.967H1319.69V263.036H1323.76ZM1364.85 263.036H1368.92V258.967H1364.85V263.036ZM1364.85 408.118L1364.9 412.187L1368.92 412.146V408.118H1364.85ZM1323.76 408.533H1319.69V412.644L1323.8 412.602L1323.76 408.533ZM1323.76 359.135H1327.83V346.806L1320.49 356.712L1323.76 359.135ZM1294.08 399.193L1297.34 401.622L1297.35 401.616L1294.08 399.193ZM1213.34 400.438L1216.22 397.56L1213.34 400.438ZM1205.66 263.036V258.967H1201.59V263.036H1205.66ZM1246.75 263.036H1250.82V258.967H1246.75V263.036ZM1246.75 372.833H1242.69V376.903H1246.75V372.833ZM1304.25 372.833V376.903H1306.3L1307.52 375.258L1304.25 372.833ZM1323.34 347.096V343.027H1321.29L1320.07 344.671L1323.34 347.096ZM1323.76 347.096V351.166H1327.83V347.096H1323.76ZM1323.76 267.106H1364.85V258.967H1323.76V267.106ZM1360.78 263.036V408.118H1368.92V263.036H1360.78ZM1364.81 404.048L1323.72 404.463L1323.8 412.602L1364.9 412.187L1364.81 404.048ZM1327.83 408.533V359.135H1319.69V408.533H1327.83ZM1320.49 356.712L1290.81 396.77L1297.35 401.616L1327.03 361.557L1320.49 356.712ZM1290.81 396.763C1287.16 401.672 1282.42 404.048 1276.23 404.048V412.187C1284.97 412.187 1292.14 408.613 1297.34 401.622L1290.81 396.763ZM1276.23 404.048H1231.81V412.187H1276.23V404.048ZM1231.81 404.048C1225.7 404.048 1220.58 401.922 1216.22 397.56L1210.46 403.316C1216.34 409.193 1223.53 412.187 1231.81 412.187V404.048ZM1216.22 397.56C1211.85 393.199 1209.73 388.074 1209.73 381.966H1201.59C1201.59 390.248 1204.58 397.438 1210.46 403.316L1216.22 397.56ZM1209.73 381.966V263.036H1201.59V381.966H1209.73ZM1205.66 267.106H1246.75V258.967H1205.66V267.106ZM1242.69 263.036V372.833H1250.82V263.036H1242.69ZM1246.75 376.903H1304.25V368.764H1246.75V376.903ZM1307.52 375.258L1326.61 349.521L1320.07 344.671L1300.98 370.408L1307.52 375.258ZM1323.34 351.166H1323.76V343.027H1323.34V351.166ZM1327.83 347.096V263.036H1319.69V347.096H1327.83ZM1531.84 278.396L1534.71 275.518V275.518L1531.84 278.396ZM1547.4 316.171L1551.47 316.209L1551.47 316.19V316.171H1547.4ZM1531.21 353.323L1534.01 356.276L1534.02 356.267L1534.03 356.257L1531.21 353.323ZM1464.38 368.475L1461.64 371.487L1462.81 372.544H1464.38V368.475ZM1439.47 345.851L1436.72 348.846L1436.73 348.855L1436.74 348.864L1439.47 345.851ZM1423.91 331.53L1426.66 328.535L1419.84 322.256V331.53H1423.91ZM1423.91 408.118V412.187H1427.98V408.118H1423.91ZM1382.81 408.118H1378.74V412.187H1382.81V408.118ZM1382.81 317.624V313.554H1378.74V317.624H1382.81ZM1419.55 317.624L1422.29 314.616L1421.12 313.554H1419.55V317.624ZM1440.72 336.926L1437.98 339.933L1439.14 340.996H1440.72V336.926ZM1500.7 331.322L1503.58 334.2L1503.61 334.174L1503.63 334.147L1500.7 331.322ZM1500.7 304.132L1497.77 306.957L1497.8 306.984L1497.82 307.01L1500.7 304.132ZM1382.81 298.321H1378.74V302.391H1382.81V298.321ZM1382.81 263.036V258.967H1378.74V263.036H1382.81ZM1528.96 281.273C1538.56 290.88 1543.33 302.434 1543.33 316.171H1551.47C1551.47 300.296 1545.86 286.666 1534.71 275.518L1528.96 281.273ZM1543.33 316.132C1543.2 329.546 1538.27 340.893 1528.39 350.389L1534.03 356.257C1545.46 345.274 1551.32 331.853 1551.47 316.209L1543.33 316.132ZM1528.41 350.37C1518.52 359.747 1506.8 364.405 1493.02 364.405V372.544C1508.86 372.544 1522.6 367.101 1534.01 356.276L1528.41 350.37ZM1493.02 364.405H1464.38V372.544H1493.02V364.405ZM1467.12 365.462L1442.21 342.839L1436.74 348.864L1461.64 371.487L1467.12 365.462ZM1442.23 342.856L1426.66 328.535L1421.15 334.525L1436.72 348.846L1442.23 342.856ZM1419.84 331.53V408.118H1427.98V331.53H1419.84ZM1423.91 404.048H1382.81V412.187H1423.91V404.048ZM1386.88 408.118V317.624H1378.74V408.118H1386.88ZM1382.81 321.693H1419.55V313.554H1382.81V321.693ZM1416.81 320.631L1437.98 339.933L1443.46 333.919L1422.29 314.616L1416.81 320.631ZM1440.72 340.996H1487V332.856H1440.72V340.996ZM1487 340.996C1493.45 340.996 1499.06 338.717 1503.58 334.2L1497.82 328.444C1494.87 331.399 1491.35 332.856 1487 332.856V340.996ZM1503.63 334.147C1508.08 329.534 1510.38 323.963 1510.38 317.624H1502.24C1502.24 321.8 1500.8 325.361 1497.77 328.497L1503.63 334.147ZM1510.38 317.624C1510.38 311.28 1508.07 305.75 1503.58 301.255L1497.82 307.01C1500.8 309.987 1502.24 313.451 1502.24 317.624H1510.38ZM1503.63 301.307C1499.13 296.635 1493.5 294.251 1487 294.251V302.391C1491.3 302.391 1494.81 303.881 1497.77 306.957L1503.63 301.307ZM1487 294.251H1382.81V302.391H1487V294.251ZM1386.88 298.321V263.036H1378.74V298.321H1386.88ZM1382.81 267.106H1494.68V258.967H1382.81V267.106ZM1494.68 267.106C1508.14 267.106 1519.48 271.8 1528.96 281.273L1534.71 275.518C1523.71 264.512 1510.29 258.967 1494.68 258.967V267.106Z" fill="black" fill-opacity="0.05" mask="url(#path-3-outside-2_127_6)"/>
</svg>
