<svg width="43" height="41" viewBox="0 0 43 41" fill="none" xmlns="http://www.w3.org/2000/svg">
<g clip-path="url(#clip0_9_380)">
<path fill-rule="evenodd" clip-rule="evenodd" d="M21.2622 0.0875244C9.84832 0.0875244 0.621338 9.38252 0.621338 20.8817C0.621338 30.0736 6.53338 37.8544 14.735 40.6082C15.7604 40.8153 16.136 40.1608 16.136 39.6103C16.136 39.1282 16.1022 37.4758 16.1022 35.7541C10.3604 36.9937 9.16471 33.2753 9.16471 33.2753C8.24197 30.8654 6.87476 30.246 6.87476 30.246C4.99548 28.9722 7.01165 28.9722 7.01165 28.9722C9.09627 29.1099 10.1901 31.1066 10.1901 31.1066C12.0352 34.2737 15.0083 33.3788 16.2044 32.8279C16.3751 31.4852 16.9222 30.5557 17.5032 30.0394C12.9237 29.5573 8.1055 27.7672 8.1055 19.7798C8.1055 17.5076 8.92515 15.6486 10.2239 14.2028C10.019 13.6865 9.30118 11.5516 10.4293 8.69427C10.4293 8.69427 12.1721 8.14333 16.1017 10.8287C17.7842 10.3736 19.5192 10.142 21.2622 10.1401C23.005 10.1401 24.7816 10.3813 26.4221 10.8287C30.3522 8.14333 32.0951 8.69427 32.0951 8.69427C33.2231 11.5516 32.5049 13.6865 32.3 14.2028C33.633 15.6486 34.4188 17.5076 34.4188 19.7798C34.4188 27.7672 29.6006 29.5227 24.9869 30.0394C25.739 30.6934 26.3879 31.9326 26.3879 33.8951C26.3879 36.6836 26.3541 38.9216 26.3541 39.6099C26.3541 40.1608 26.7302 40.8153 27.7551 40.6087C35.9567 37.854 41.8687 30.0736 41.8687 20.8817C41.9025 9.38252 32.6418 0.0875244 21.2622 0.0875244Z" fill="black"/>
</g>
<defs>
<clipPath id="clip0_9_380">
<rect width="41.405" height="40.56" fill="black" transform="translate(0.621338 0.0875244)"/>
</clipPath>
</defs>
</svg>
