<svg width="1655" height="467" viewBox="0 0 1655 467" fill="none" xmlns="http://www.w3.org/2000/svg">
<path d="M228.025 207.169L139.671 119H364V301H139.671L228.025 212.831L230.863 210L228.025 207.169Z" fill="#08B74F" stroke="black" stroke-width="8"/>
<path d="M1244 119H1368.94L1457.42 210L1368.94 301H1244V119Z" fill="#08B74F" stroke="black" stroke-width="8"/>
<mask id="path-3-inside-1_256_2" fill="white">
<path d="M1240 305H368V115H1240V305Z"/>
</mask>
<path d="M1240 305H368V115H1240V305Z" fill="#1E1E1E" fill-opacity="0.882353"/>
<path d="M1240 297H368V313H1240V297ZM368 123H1240V107H368V123Z" fill="black" mask="url(#path-3-inside-1_256_2)"/>
<path d="M302.755 240C303.9 243.293 303.718 247.439 303.645 250.689C303.379 262.591 300.212 273.761 295.327 282.79C290.539 291.639 283.111 297.028 275.605 301.864C265.26 308.529 254.014 313.593 241.96 315.8C236.457 316.807 230.747 316.971 225.123 317.414C212.873 318.38 200.595 319.91 188.824 322.829C172.512 326.872 157.233 334.539 143.955 345.616C134.732 353.309 125.527 363.553 120.755 376.587C119.539 379.908 118.541 383.32 117.559 386.803C117.414 387.316 116.668 391.98 116.342 392.146C116.191 392.223 113.374 386.311 113.061 385.681C111.84 383.222 111.9 383.409 112.791 385.973C113.428 387.804 114.133 389.104 115.026 390.794C116.428 393.452 117.644 391.919 119.616 391.234C120.954 390.768 123.629 389.838 123.629 389.838C123.629 389.838 121.366 390.39 120.586 391.292C119.593 392.44 117.01 392.649 115.649 393.122" stroke="black" stroke-width="5" stroke-linecap="round"/>
<path d="M1305.94 198.318C1305.57 194.852 1306.68 190.854 1307.49 187.703C1310.43 176.168 1316.03 165.998 1322.82 158.302C1329.48 150.761 1337.93 147.183 1346.34 144.163C1357.92 140.001 1370.02 137.601 1382.26 138.168C1387.84 138.426 1393.44 139.553 1399.02 140.389C1411.18 142.208 1423.48 143.483 1435.61 143.293C1452.41 143.029 1469.03 139.002 1484.46 131.203C1495.18 125.785 1506.45 117.879 1514.04 106.256C1515.97 103.294 1517.72 100.195 1519.46 97.0224C1519.71 96.5553 1521.49 92.1794 1521.85 92.091C1522.01 92.0503 1523.42 98.4448 1523.59 99.129C1524.22 101.8 1524.21 101.604 1523.91 98.9055C1523.71 96.978 1523.31 95.5527 1522.82 93.7047C1522.06 90.799 1520.53 92.0184 1518.45 92.2423C1517.04 92.3941 1514.23 92.6979 1514.23 92.6979C1514.23 92.6979 1516.56 92.6702 1517.52 91.9667C1518.75 91.0723 1521.31 91.4506 1522.74 91.2962" stroke="black" stroke-width="5" stroke-linecap="round"/>
<path d="M6.624 440.184V445.496H15.808V449.592H6.624V454.904H16.832V459H2.304V436.088H16.832V440.184H6.624ZM18.003 443.32H22.771L26.675 453.304H26.899L30.835 443.32H35.571L28.819 459H24.691L18.003 443.32ZM51.8588 455.224C51.1334 456.504 50.1521 457.539 48.9148 458.328C47.6988 459.117 46.2054 459.512 44.4348 459.512C43.2401 459.512 42.1308 459.309 41.1068 458.904C40.1041 458.477 39.2294 457.891 38.4828 457.144C37.7361 456.397 37.1494 455.523 36.7228 454.52C36.3174 453.496 36.1148 452.376 36.1148 451.16C36.1148 450.029 36.3174 448.963 36.7228 447.96C37.1281 446.936 37.6934 446.051 38.4188 445.304C39.1441 444.536 39.9974 443.928 40.9788 443.48C41.9814 443.032 43.0801 442.808 44.2748 442.808C45.5334 442.808 46.6534 443.021 47.6348 443.448C48.6161 443.853 49.4374 444.429 50.0988 445.176C50.7601 445.901 51.2614 446.765 51.6028 447.768C51.9441 448.771 52.1147 449.859 52.1147 451.032C52.1147 451.181 52.1147 451.309 52.1147 451.416C52.0934 451.544 52.0828 451.661 52.0828 451.768C52.0614 451.875 52.0508 451.992 52.0508 452.12H40.2428C40.3281 452.76 40.4988 453.315 40.7548 453.784C41.0321 454.232 41.3628 454.616 41.7468 454.936C42.1521 455.235 42.5894 455.459 43.0588 455.608C43.5281 455.736 44.0081 455.8 44.4988 455.8C45.4588 455.8 46.2481 455.587 46.8668 455.16C47.5068 454.712 48.0081 454.157 48.3708 453.496L51.8588 455.224ZM48.0508 449.144C48.0294 448.867 47.9334 448.557 47.7628 448.216C47.6134 447.875 47.3788 447.555 47.0588 447.256C46.7601 446.957 46.3761 446.712 45.9068 446.52C45.4588 446.328 44.9148 446.232 44.2748 446.232C43.3788 446.232 42.5894 446.488 41.9068 447C41.2241 447.512 40.7441 448.227 40.4668 449.144H48.0508ZM58.728 445.368H58.984C59.4747 444.579 60.136 443.96 60.968 443.512C61.8 443.043 62.7493 442.808 63.816 442.808C64.7973 442.808 65.6613 442.968 66.408 443.288C67.1547 443.608 67.7627 444.067 68.232 444.664C68.7227 445.24 69.0853 445.944 69.32 446.776C69.576 447.587 69.704 448.493 69.704 449.496V459H65.512V450.008C65.512 448.877 65.256 448.045 64.744 447.512C64.2533 446.957 63.528 446.68 62.568 446.68C61.992 446.68 61.48 446.808 61.032 447.064C60.6053 447.299 60.232 447.629 59.912 448.056C59.6133 448.461 59.3787 448.952 59.208 449.528C59.0587 450.083 58.984 450.68 58.984 451.32V459H54.792V443.32H58.728V445.368ZM74.0825 446.904H71.3305V443.32H74.0825V438.52H78.2745V443.32H82.1145V446.904H78.2745V452.984C78.2745 453.347 78.3065 453.688 78.3705 454.008C78.4558 454.307 78.6052 454.563 78.8185 454.776C79.1172 455.117 79.5438 455.288 80.0985 455.288C80.4612 455.288 80.7492 455.256 80.9625 455.192C81.1758 455.107 81.3785 455 81.5705 454.872L82.7545 458.552C82.2638 458.787 81.7305 458.957 81.1545 459.064C80.5998 459.192 79.9812 459.256 79.2985 459.256C78.5092 459.256 77.7945 459.139 77.1545 458.904C76.5358 458.648 76.0132 458.307 75.5865 457.88C74.5838 456.92 74.0825 455.555 74.0825 453.784V446.904ZM92.7415 436.088H97.0615V454.904H106.758V459H92.7415V436.088ZM118.987 457.336H118.731C118.241 457.933 117.643 458.445 116.939 458.872C116.257 459.299 115.371 459.512 114.283 459.512C113.473 459.512 112.705 459.373 111.979 459.096C111.275 458.84 110.657 458.477 110.123 458.008C109.59 457.539 109.174 456.973 108.875 456.312C108.577 455.651 108.427 454.925 108.427 454.136C108.427 453.325 108.587 452.6 108.907 451.96C109.227 451.299 109.675 450.733 110.251 450.264C110.827 449.795 111.499 449.443 112.267 449.208C113.057 448.952 113.91 448.824 114.827 448.824C115.851 448.824 116.694 448.909 117.355 449.08C118.017 449.229 118.561 449.389 118.987 449.56V449.08C118.987 448.248 118.657 447.565 117.995 447.032C117.334 446.477 116.513 446.2 115.531 446.2C114.081 446.2 112.854 446.808 111.851 448.024L108.811 445.944C110.475 443.853 112.747 442.808 115.627 442.808C118.059 442.808 119.915 443.384 121.195 444.536C122.475 445.667 123.115 447.352 123.115 449.592V459H118.987V457.336ZM118.987 452.632C118.497 452.397 117.985 452.216 117.451 452.088C116.939 451.939 116.374 451.864 115.755 451.864C114.753 451.864 113.974 452.088 113.419 452.536C112.886 452.963 112.619 453.496 112.619 454.136C112.619 454.776 112.875 455.288 113.387 455.672C113.921 456.056 114.529 456.248 115.211 456.248C115.766 456.248 116.278 456.152 116.747 455.96C117.217 455.747 117.611 455.48 117.931 455.16C118.273 454.819 118.529 454.435 118.699 454.008C118.891 453.56 118.987 453.101 118.987 452.632ZM137.296 456.952H137.04C136.55 457.741 135.888 458.371 135.056 458.84C134.224 459.288 133.275 459.512 132.208 459.512C130.224 459.512 128.742 458.904 127.76 457.688C126.8 456.472 126.32 454.851 126.32 452.824V443.32H130.512V452.312C130.512 453.443 130.758 454.285 131.248 454.84C131.76 455.373 132.496 455.64 133.456 455.64C134.032 455.64 134.534 455.523 134.96 455.288C135.408 455.032 135.782 454.701 136.08 454.296C136.4 453.869 136.635 453.379 136.784 452.824C136.955 452.248 137.04 451.64 137.04 451V443.32H141.232V459H137.296V456.952ZM148.759 445.368H149.015C149.506 444.579 150.167 443.96 150.999 443.512C151.831 443.043 152.781 442.808 153.847 442.808C154.829 442.808 155.693 442.968 156.439 443.288C157.186 443.608 157.794 444.067 158.263 444.664C158.754 445.24 159.117 445.944 159.351 446.776C159.607 447.587 159.735 448.493 159.735 449.496V459H155.543V450.008C155.543 448.877 155.287 448.045 154.775 447.512C154.285 446.957 153.559 446.68 152.599 446.68C152.023 446.68 151.511 446.808 151.063 447.064C150.637 447.299 150.263 447.629 149.943 448.056C149.645 448.461 149.41 448.952 149.239 449.528C149.09 450.083 149.015 450.68 149.015 451.32V459H144.823V443.32H148.759V445.368ZM178.078 455C177.396 456.323 176.436 457.411 175.198 458.264C173.982 459.096 172.457 459.512 170.622 459.512C169.406 459.512 168.286 459.309 167.262 458.904C166.26 458.477 165.385 457.891 164.638 457.144C163.913 456.397 163.337 455.523 162.91 454.52C162.505 453.496 162.302 452.376 162.302 451.16C162.302 449.944 162.505 448.824 162.91 447.8C163.337 446.776 163.913 445.901 164.638 445.176C165.385 444.429 166.26 443.853 167.262 443.448C168.286 443.021 169.406 442.808 170.622 442.808C172.436 442.808 173.961 443.224 175.198 444.056C176.436 444.888 177.342 445.965 177.918 447.288L174.078 448.888C173.716 448.163 173.246 447.619 172.67 447.256C172.116 446.872 171.412 446.68 170.558 446.68C170.004 446.68 169.481 446.787 168.99 447C168.5 447.213 168.062 447.512 167.678 447.896C167.316 448.28 167.028 448.749 166.814 449.304C166.601 449.859 166.494 450.477 166.494 451.16C166.494 451.843 166.601 452.461 166.814 453.016C167.028 453.571 167.316 454.04 167.678 454.424C168.062 454.808 168.5 455.107 168.99 455.32C169.481 455.533 170.004 455.64 170.558 455.64C171.433 455.64 172.169 455.448 172.766 455.064C173.385 454.659 173.876 454.083 174.238 453.336L178.078 455ZM180.636 436.088H184.828V442.52L184.572 445.368H184.828C185.276 444.621 185.916 444.013 186.748 443.544C187.601 443.053 188.55 442.808 189.596 442.808C191.622 442.808 193.116 443.405 194.076 444.6C195.057 445.795 195.548 447.427 195.548 449.496V459H191.356V450.008C191.356 448.92 191.1 448.099 190.588 447.544C190.076 446.968 189.361 446.68 188.444 446.68C187.868 446.68 187.356 446.808 186.908 447.064C186.46 447.299 186.076 447.629 185.756 448.056C185.457 448.483 185.222 448.984 185.052 449.56C184.902 450.115 184.828 450.712 184.828 451.352V459H180.636V436.088ZM201.539 459.192C200.771 459.192 200.109 458.925 199.555 458.392C199.021 457.837 198.755 457.176 198.755 456.408C198.755 455.64 199.021 454.989 199.555 454.456C200.109 453.923 200.771 453.656 201.539 453.656C202.307 453.656 202.957 453.923 203.491 454.456C204.024 454.989 204.291 455.64 204.291 456.408C204.291 457.176 204.024 457.837 203.491 458.392C202.957 458.925 202.307 459.192 201.539 459.192ZM201.539 448.472C200.771 448.472 200.109 448.205 199.555 447.672C199.021 447.117 198.755 446.456 198.755 445.688C198.755 444.92 199.021 444.269 199.555 443.736C200.109 443.181 200.771 442.904 201.539 442.904C202.307 442.904 202.957 443.181 203.491 443.736C204.024 444.269 204.291 444.92 204.291 445.688C204.291 446.456 204.024 447.117 203.491 447.672C202.957 448.205 202.307 448.472 201.539 448.472ZM225.371 459.512C223.664 459.512 222.075 459.203 220.603 458.584C219.152 457.965 217.893 457.123 216.827 456.056C215.76 454.968 214.917 453.699 214.299 452.248C213.701 450.776 213.403 449.208 213.403 447.544C213.403 445.88 213.701 444.323 214.299 442.872C214.917 441.4 215.76 440.131 216.827 439.064C217.893 437.976 219.152 437.123 220.603 436.504C222.075 435.885 223.664 435.576 225.371 435.576C227.077 435.576 228.656 435.885 230.107 436.504C231.579 437.123 232.848 437.976 233.915 439.064C234.981 440.131 235.813 441.4 236.411 442.872C237.029 444.323 237.339 445.88 237.339 447.544C237.339 449.208 237.029 450.776 236.411 452.248C235.813 453.699 234.981 454.968 233.915 456.056C232.848 457.123 231.579 457.965 230.107 458.584C228.656 459.203 227.077 459.512 225.371 459.512ZM225.371 455.416C226.437 455.416 227.429 455.224 228.347 454.84C229.285 454.456 230.096 453.923 230.779 453.24C231.483 452.557 232.027 451.736 232.411 450.776C232.816 449.795 233.019 448.717 233.019 447.544C233.019 446.371 232.816 445.304 232.411 444.344C232.027 443.363 231.483 442.531 230.779 441.848C230.096 441.165 229.285 440.632 228.347 440.248C227.429 439.864 226.437 439.672 225.371 439.672C224.304 439.672 223.301 439.864 222.363 440.248C221.445 440.632 220.635 441.165 219.931 441.848C219.248 442.531 218.704 443.363 218.299 444.344C217.915 445.304 217.723 446.371 217.723 447.544C217.723 448.717 217.915 449.795 218.299 450.776C218.704 451.736 219.248 452.557 219.931 453.24C220.635 453.923 221.445 454.456 222.363 454.84C223.301 455.224 224.304 455.416 225.371 455.416ZM255.203 455C254.521 456.323 253.561 457.411 252.323 458.264C251.107 459.096 249.582 459.512 247.747 459.512C246.531 459.512 245.411 459.309 244.387 458.904C243.385 458.477 242.51 457.891 241.763 457.144C241.038 456.397 240.462 455.523 240.035 454.52C239.63 453.496 239.427 452.376 239.427 451.16C239.427 449.944 239.63 448.824 240.035 447.8C240.462 446.776 241.038 445.901 241.763 445.176C242.51 444.429 243.385 443.853 244.387 443.448C245.411 443.021 246.531 442.808 247.747 442.808C249.561 442.808 251.086 443.224 252.323 444.056C253.561 444.888 254.467 445.965 255.043 447.288L251.203 448.888C250.841 448.163 250.371 447.619 249.795 447.256C249.241 446.872 248.537 446.68 247.683 446.68C247.129 446.68 246.606 446.787 246.115 447C245.625 447.213 245.187 447.512 244.803 447.896C244.441 448.28 244.153 448.749 243.939 449.304C243.726 449.859 243.619 450.477 243.619 451.16C243.619 451.843 243.726 452.461 243.939 453.016C244.153 453.571 244.441 454.04 244.803 454.424C245.187 454.808 245.625 455.107 246.115 455.32C246.606 455.533 247.129 455.64 247.683 455.64C248.558 455.64 249.294 455.448 249.891 455.064C250.51 454.659 251.001 454.083 251.363 453.336L255.203 455ZM259.333 446.904H256.581V443.32H259.333V438.52H263.525V443.32H267.365V446.904H263.525V452.984C263.525 453.347 263.557 453.688 263.621 454.008C263.706 454.307 263.855 454.563 264.069 454.776C264.367 455.117 264.794 455.288 265.349 455.288C265.711 455.288 265.999 455.256 266.213 455.192C266.426 455.107 266.629 455 266.821 454.872L268.005 458.552C267.514 458.787 266.981 458.957 266.405 459.064C265.85 459.192 265.231 459.256 264.549 459.256C263.759 459.256 263.045 459.139 262.405 458.904C261.786 458.648 261.263 458.307 260.837 457.88C259.834 456.92 259.333 455.555 259.333 453.784V446.904ZM277.716 442.808C278.932 442.808 280.041 443.021 281.044 443.448C282.068 443.853 282.943 444.429 283.668 445.176C284.415 445.901 284.991 446.776 285.396 447.8C285.823 448.824 286.036 449.944 286.036 451.16C286.036 452.376 285.823 453.496 285.396 454.52C284.991 455.544 284.415 456.429 283.668 457.176C282.943 457.901 282.068 458.477 281.044 458.904C280.041 459.309 278.932 459.512 277.716 459.512C276.5 459.512 275.38 459.309 274.356 458.904C273.353 458.477 272.479 457.901 271.732 457.176C271.007 456.429 270.431 455.544 270.004 454.52C269.599 453.496 269.396 452.376 269.396 451.16C269.396 449.944 269.599 448.824 270.004 447.8C270.431 446.776 271.007 445.901 271.732 445.176C272.479 444.429 273.353 443.853 274.356 443.448C275.38 443.021 276.5 442.808 277.716 442.808ZM277.716 455.64C278.249 455.64 278.761 455.544 279.252 455.352C279.764 455.139 280.212 454.84 280.596 454.456C280.98 454.072 281.279 453.603 281.492 453.048C281.727 452.493 281.844 451.864 281.844 451.16C281.844 450.456 281.727 449.827 281.492 449.272C281.279 448.717 280.98 448.248 280.596 447.864C280.212 447.48 279.764 447.192 279.252 447C278.761 446.787 278.249 446.68 277.716 446.68C277.161 446.68 276.639 446.787 276.148 447C275.657 447.192 275.22 447.48 274.836 447.864C274.452 448.248 274.143 448.717 273.908 449.272C273.695 449.827 273.588 450.456 273.588 451.16C273.588 451.864 273.695 452.493 273.908 453.048C274.143 453.603 274.452 454.072 274.836 454.456C275.22 454.84 275.657 455.139 276.148 455.352C276.639 455.544 277.161 455.64 277.716 455.64ZM288.573 436.088H292.765V442.968L292.509 445.208H292.765C293.149 444.547 293.747 443.981 294.557 443.512C295.368 443.043 296.371 442.808 297.565 442.808C298.568 442.808 299.517 443.021 300.413 443.448C301.331 443.853 302.131 444.429 302.813 445.176C303.517 445.901 304.072 446.776 304.477 447.8C304.883 448.824 305.085 449.944 305.085 451.16C305.085 452.376 304.883 453.496 304.477 454.52C304.072 455.544 303.517 456.429 302.813 457.176C302.131 457.901 301.331 458.477 300.413 458.904C299.517 459.309 298.568 459.512 297.565 459.512C296.371 459.512 295.368 459.277 294.557 458.808C293.747 458.339 293.149 457.773 292.765 457.112H292.509V459H288.573V436.088ZM296.701 455.64C297.256 455.64 297.779 455.533 298.269 455.32C298.781 455.107 299.229 454.808 299.613 454.424C299.997 454.04 300.307 453.571 300.541 453.016C300.776 452.461 300.893 451.843 300.893 451.16C300.893 450.477 300.776 449.859 300.541 449.304C300.307 448.749 299.997 448.28 299.613 447.896C299.229 447.512 298.781 447.213 298.269 447C297.779 446.787 297.256 446.68 296.701 446.68C296.147 446.68 295.613 446.787 295.101 447C294.611 447.192 294.173 447.48 293.789 447.864C293.405 448.248 293.096 448.717 292.861 449.272C292.627 449.827 292.509 450.456 292.509 451.16C292.509 451.864 292.627 452.493 292.861 453.048C293.096 453.603 293.405 454.072 293.789 454.456C294.173 454.84 294.611 455.139 295.101 455.352C295.613 455.544 296.147 455.64 296.701 455.64ZM322.609 455.224C321.883 456.504 320.902 457.539 319.665 458.328C318.449 459.117 316.955 459.512 315.185 459.512C313.99 459.512 312.881 459.309 311.857 458.904C310.854 458.477 309.979 457.891 309.233 457.144C308.486 456.397 307.899 455.523 307.473 454.52C307.067 453.496 306.865 452.376 306.865 451.16C306.865 450.029 307.067 448.963 307.473 447.96C307.878 446.936 308.443 446.051 309.169 445.304C309.894 444.536 310.747 443.928 311.729 443.48C312.731 443.032 313.83 442.808 315.025 442.808C316.283 442.808 317.403 443.021 318.385 443.448C319.366 443.853 320.187 444.429 320.849 445.176C321.51 445.901 322.011 446.765 322.353 447.768C322.694 448.771 322.865 449.859 322.865 451.032C322.865 451.181 322.865 451.309 322.865 451.416C322.843 451.544 322.833 451.661 322.833 451.768C322.811 451.875 322.801 451.992 322.801 452.12H310.993C311.078 452.76 311.249 453.315 311.505 453.784C311.782 454.232 312.113 454.616 312.497 454.936C312.902 455.235 313.339 455.459 313.809 455.608C314.278 455.736 314.758 455.8 315.249 455.8C316.209 455.8 316.998 455.587 317.617 455.16C318.257 454.712 318.758 454.157 319.121 453.496L322.609 455.224ZM318.801 449.144C318.779 448.867 318.683 448.557 318.513 448.216C318.363 447.875 318.129 447.555 317.809 447.256C317.51 446.957 317.126 446.712 316.657 446.52C316.209 446.328 315.665 446.232 315.025 446.232C314.129 446.232 313.339 446.488 312.657 447C311.974 447.512 311.494 448.227 311.217 449.144H318.801ZM325.542 443.32H329.478V445.496H329.734C329.926 445.112 330.182 444.76 330.502 444.44C330.822 444.12 331.174 443.843 331.558 443.608C331.963 443.373 332.39 443.192 332.838 443.064C333.307 442.936 333.766 442.872 334.214 442.872C334.769 442.872 335.238 442.925 335.622 443.032C336.027 443.139 336.369 443.277 336.646 443.448L335.526 447.256C335.27 447.128 334.982 447.032 334.662 446.968C334.363 446.883 333.99 446.84 333.542 446.84C332.966 446.84 332.443 446.957 331.974 447.192C331.505 447.405 331.099 447.715 330.758 448.12C330.438 448.525 330.182 449.005 329.99 449.56C329.819 450.093 329.734 450.68 329.734 451.32V459H325.542V443.32ZM346.149 457.56L355.269 441.272L355.173 441.08H345.093L345.157 437.112H360.005V441.272L349.669 459.512L346.149 457.56ZM359.158 461.848L361.046 458.936C360.577 458.765 360.171 458.456 359.83 458.008C359.51 457.56 359.35 457.027 359.35 456.408C359.35 455.64 359.617 454.989 360.15 454.456C360.705 453.923 361.366 453.656 362.134 453.656C362.902 453.656 363.553 453.923 364.086 454.456C364.619 454.989 364.886 455.64 364.886 456.408C364.886 456.813 364.822 457.176 364.694 457.496C364.566 457.795 364.363 458.147 364.086 458.552L361.046 463.096L359.158 461.848ZM374.941 459V455.192C376.199 453.955 377.362 452.803 378.429 451.736C378.877 451.288 379.335 450.829 379.805 450.36C380.274 449.891 380.711 449.453 381.117 449.048C381.522 448.643 381.885 448.28 382.205 447.96C382.525 447.619 382.77 447.352 382.941 447.16C383.282 446.755 383.581 446.392 383.837 446.072C384.114 445.752 384.327 445.443 384.477 445.144C384.647 444.824 384.775 444.515 384.861 444.216C384.946 443.896 384.989 443.555 384.989 443.192C384.989 442.488 384.711 441.88 384.157 441.368C383.602 440.835 382.845 440.568 381.885 440.568C380.925 440.568 380.178 440.845 379.645 441.4C379.111 441.933 378.749 442.541 378.557 443.224L374.749 441.656C374.919 441.08 375.197 440.493 375.581 439.896C375.965 439.277 376.455 438.733 377.053 438.264C377.65 437.773 378.354 437.379 379.165 437.08C379.997 436.76 380.925 436.6 381.949 436.6C383.058 436.6 384.061 436.771 384.957 437.112C385.853 437.432 386.61 437.88 387.229 438.456C387.847 439.032 388.327 439.715 388.669 440.504C389.01 441.272 389.181 442.104 389.181 443C389.181 444.365 388.839 445.624 388.157 446.776C387.495 447.907 386.685 448.963 385.725 449.944L382.973 452.696C382.247 453.421 381.426 454.232 380.509 455.128L380.637 455.32H389.501V459H374.941ZM401.498 459.512C400.09 459.512 398.821 459.224 397.69 458.648C396.56 458.051 395.589 457.24 394.778 456.216C393.989 455.192 393.381 453.987 392.954 452.6C392.528 451.192 392.314 449.677 392.314 448.056C392.314 446.435 392.528 444.931 392.954 443.544C393.381 442.136 393.989 440.92 394.778 439.896C395.589 438.872 396.56 438.072 397.69 437.496C398.821 436.899 400.09 436.6 401.498 436.6C402.906 436.6 404.176 436.899 405.306 437.496C406.437 438.072 407.397 438.872 408.186 439.896C408.997 440.92 409.616 442.136 410.042 443.544C410.469 444.931 410.682 446.435 410.682 448.056C410.682 449.677 410.469 451.192 410.042 452.6C409.616 453.987 408.997 455.192 408.186 456.216C407.397 457.24 406.437 458.051 405.306 458.648C404.176 459.224 402.906 459.512 401.498 459.512ZM401.498 455.544C402.266 455.544 402.96 455.363 403.578 455C404.197 454.616 404.72 454.093 405.146 453.432C405.594 452.749 405.925 451.949 406.138 451.032C406.373 450.115 406.49 449.123 406.49 448.056C406.49 446.968 406.373 445.976 406.138 445.08C405.925 444.163 405.594 443.373 405.146 442.712C404.72 442.029 404.197 441.507 403.578 441.144C402.96 440.76 402.266 440.568 401.498 440.568C400.709 440.568 400.005 440.76 399.386 441.144C398.768 441.507 398.245 442.029 397.818 442.712C397.392 443.373 397.061 444.163 396.826 445.08C396.613 445.976 396.506 446.968 396.506 448.056C396.506 449.123 396.613 450.115 396.826 451.032C397.061 451.949 397.392 452.749 397.818 453.432C398.245 454.093 398.768 454.616 399.386 455C400.005 455.363 400.709 455.544 401.498 455.544ZM413.253 459V455.192C414.512 453.955 415.675 452.803 416.741 451.736C417.189 451.288 417.648 450.829 418.117 450.36C418.587 449.891 419.024 449.453 419.429 449.048C419.835 448.643 420.197 448.28 420.517 447.96C420.837 447.619 421.083 447.352 421.253 447.16C421.595 446.755 421.893 446.392 422.149 446.072C422.427 445.752 422.64 445.443 422.789 445.144C422.96 444.824 423.088 444.515 423.173 444.216C423.259 443.896 423.301 443.555 423.301 443.192C423.301 442.488 423.024 441.88 422.469 441.368C421.915 440.835 421.157 440.568 420.197 440.568C419.237 440.568 418.491 440.845 417.957 441.4C417.424 441.933 417.061 442.541 416.869 443.224L413.061 441.656C413.232 441.08 413.509 440.493 413.893 439.896C414.277 439.277 414.768 438.733 415.365 438.264C415.963 437.773 416.667 437.379 417.477 437.08C418.309 436.76 419.237 436.6 420.261 436.6C421.371 436.6 422.373 436.771 423.269 437.112C424.165 437.432 424.923 437.88 425.541 438.456C426.16 439.032 426.64 439.715 426.981 440.504C427.323 441.272 427.493 442.104 427.493 443C427.493 444.365 427.152 445.624 426.469 446.776C425.808 447.907 424.997 448.963 424.037 449.944L421.285 452.696C420.56 453.421 419.739 454.232 418.821 455.128L418.949 455.32H427.813V459H413.253ZM440.611 459V454.968H430.499V451.576L440.227 437.112H444.771V451.064H447.523V454.968H444.771V459H440.611ZM440.611 443.352H440.355L435.139 451.064H440.611V443.352Z" fill="black"/>
<path d="M432.336 217.32C431.205 218.685 429.872 219.731 428.336 220.456C426.8 221.16 425.083 221.512 423.184 221.512C421.477 221.512 419.888 221.203 418.416 220.584C416.965 219.965 415.707 219.123 414.64 218.056C413.573 216.989 412.731 215.731 412.112 214.28C411.493 212.808 411.184 211.229 411.184 209.544C411.184 207.859 411.493 206.291 412.112 204.84C412.731 203.368 413.573 202.099 414.64 201.032C415.707 199.965 416.965 199.123 418.416 198.504C419.888 197.885 421.477 197.576 423.184 197.576C425.019 197.576 426.629 197.896 428.016 198.536C429.424 199.176 430.672 200.104 431.76 201.32L428.72 204.264C428.037 203.475 427.248 202.845 426.352 202.376C425.477 201.907 424.432 201.672 423.216 201.672C422.149 201.672 421.147 201.864 420.208 202.248C419.269 202.611 418.448 203.133 417.744 203.816C417.061 204.499 416.517 205.331 416.112 206.312C415.707 207.272 415.504 208.349 415.504 209.544C415.504 210.739 415.707 211.827 416.112 212.808C416.517 213.768 417.061 214.589 417.744 215.272C418.448 215.955 419.269 216.488 420.208 216.872C421.147 217.235 422.149 217.416 423.216 217.416C424.496 217.416 425.627 217.16 426.608 216.648C427.611 216.115 428.496 215.368 429.264 214.408L432.336 217.32ZM442.091 204.808C443.307 204.808 444.416 205.021 445.419 205.448C446.443 205.853 447.318 206.429 448.043 207.176C448.79 207.901 449.366 208.776 449.771 209.8C450.198 210.824 450.411 211.944 450.411 213.16C450.411 214.376 450.198 215.496 449.771 216.52C449.366 217.544 448.79 218.429 448.043 219.176C447.318 219.901 446.443 220.477 445.419 220.904C444.416 221.309 443.307 221.512 442.091 221.512C440.875 221.512 439.755 221.309 438.731 220.904C437.728 220.477 436.854 219.901 436.107 219.176C435.382 218.429 434.806 217.544 434.379 216.52C433.974 215.496 433.771 214.376 433.771 213.16C433.771 211.944 433.974 210.824 434.379 209.8C434.806 208.776 435.382 207.901 436.107 207.176C436.854 206.429 437.728 205.853 438.731 205.448C439.755 205.021 440.875 204.808 442.091 204.808ZM442.091 217.64C442.624 217.64 443.136 217.544 443.627 217.352C444.139 217.139 444.587 216.84 444.971 216.456C445.355 216.072 445.654 215.603 445.867 215.048C446.102 214.493 446.219 213.864 446.219 213.16C446.219 212.456 446.102 211.827 445.867 211.272C445.654 210.717 445.355 210.248 444.971 209.864C444.587 209.48 444.139 209.192 443.627 209C443.136 208.787 442.624 208.68 442.091 208.68C441.536 208.68 441.014 208.787 440.523 209C440.032 209.192 439.595 209.48 439.211 209.864C438.827 210.248 438.518 210.717 438.283 211.272C438.07 211.827 437.963 212.456 437.963 213.16C437.963 213.864 438.07 214.493 438.283 215.048C438.518 215.603 438.827 216.072 439.211 216.456C439.595 216.84 440.032 217.139 440.523 217.352C441.014 217.544 441.536 217.64 442.091 217.64ZM456.728 207.368H456.984C457.475 206.579 458.136 205.96 458.968 205.512C459.8 205.043 460.749 204.808 461.816 204.808C462.797 204.808 463.661 204.968 464.408 205.288C465.155 205.608 465.763 206.067 466.232 206.664C466.723 207.24 467.085 207.944 467.32 208.776C467.576 209.587 467.704 210.493 467.704 211.496V221H463.512V212.008C463.512 210.877 463.256 210.045 462.744 209.512C462.253 208.957 461.528 208.68 460.568 208.68C459.992 208.68 459.48 208.808 459.032 209.064C458.605 209.299 458.232 209.629 457.912 210.056C457.613 210.461 457.379 210.952 457.208 211.528C457.059 212.083 456.984 212.68 456.984 213.32V221H452.792V205.32H456.728V207.368ZM472.083 208.904H469.331V205.32H472.083V200.52H476.275V205.32H480.115V208.904H476.275V214.984C476.275 215.347 476.307 215.688 476.371 216.008C476.456 216.307 476.605 216.563 476.819 216.776C477.117 217.117 477.544 217.288 478.099 217.288C478.461 217.288 478.749 217.256 478.963 217.192C479.176 217.107 479.379 217 479.571 216.872L480.755 220.552C480.264 220.787 479.731 220.957 479.155 221.064C478.6 221.192 477.981 221.256 477.299 221.256C476.509 221.256 475.795 221.139 475.155 220.904C474.536 220.648 474.013 220.307 473.587 219.88C472.584 218.92 472.083 217.555 472.083 215.784V208.904ZM483.198 205.32H487.134V207.496H487.39C487.582 207.112 487.838 206.76 488.158 206.44C488.478 206.12 488.83 205.843 489.214 205.608C489.62 205.373 490.046 205.192 490.494 205.064C490.964 204.936 491.422 204.872 491.87 204.872C492.425 204.872 492.894 204.925 493.278 205.032C493.684 205.139 494.025 205.277 494.302 205.448L493.182 209.256C492.926 209.128 492.638 209.032 492.318 208.968C492.02 208.883 491.646 208.84 491.198 208.84C490.622 208.84 490.1 208.957 489.63 209.192C489.161 209.405 488.756 209.715 488.414 210.12C488.094 210.525 487.838 211.005 487.646 211.56C487.476 212.093 487.39 212.68 487.39 213.32V221H483.198V205.32ZM498.566 203.048C498.203 203.048 497.851 202.984 497.51 202.856C497.19 202.707 496.902 202.515 496.646 202.28C496.411 202.024 496.219 201.736 496.07 201.416C495.942 201.096 495.878 200.744 495.878 200.36C495.878 199.976 495.942 199.624 496.07 199.304C496.219 198.984 496.411 198.707 496.646 198.472C496.902 198.216 497.19 198.024 497.51 197.896C497.851 197.747 498.203 197.672 498.566 197.672C499.312 197.672 499.952 197.939 500.486 198.472C501.019 198.984 501.286 199.613 501.286 200.36C501.286 201.107 501.019 201.747 500.486 202.28C499.952 202.792 499.312 203.048 498.566 203.048ZM496.486 221V205.32H500.678V221H496.486ZM504.511 198.088H508.703V204.968L508.447 207.208H508.703C509.087 206.547 509.684 205.981 510.495 205.512C511.305 205.043 512.308 204.808 513.503 204.808C514.505 204.808 515.455 205.021 516.351 205.448C517.268 205.853 518.068 206.429 518.751 207.176C519.455 207.901 520.009 208.776 520.415 209.8C520.82 210.824 521.023 211.944 521.023 213.16C521.023 214.376 520.82 215.496 520.415 216.52C520.009 217.544 519.455 218.429 518.751 219.176C518.068 219.901 517.268 220.477 516.351 220.904C515.455 221.309 514.505 221.512 513.503 221.512C512.308 221.512 511.305 221.277 510.495 220.808C509.684 220.339 509.087 219.773 508.703 219.112H508.447V221H504.511V198.088ZM512.639 217.64C513.193 217.64 513.716 217.533 514.207 217.32C514.719 217.107 515.167 216.808 515.551 216.424C515.935 216.04 516.244 215.571 516.479 215.016C516.713 214.461 516.831 213.843 516.831 213.16C516.831 212.477 516.713 211.859 516.479 211.304C516.244 210.749 515.935 210.28 515.551 209.896C515.167 209.512 514.719 209.213 514.207 209C513.716 208.787 513.193 208.68 512.639 208.68C512.084 208.68 511.551 208.787 511.039 209C510.548 209.192 510.111 209.48 509.727 209.864C509.343 210.248 509.033 210.717 508.799 211.272C508.564 211.827 508.447 212.456 508.447 213.16C508.447 213.864 508.564 214.493 508.799 215.048C509.033 215.603 509.343 216.072 509.727 216.456C510.111 216.84 510.548 217.139 511.039 217.352C511.551 217.544 512.084 217.64 512.639 217.64ZM534.39 218.952H534.134C533.643 219.741 532.982 220.371 532.15 220.84C531.318 221.288 530.369 221.512 529.302 221.512C527.318 221.512 525.835 220.904 524.854 219.688C523.894 218.472 523.414 216.851 523.414 214.824V205.32H527.606V214.312C527.606 215.443 527.851 216.285 528.342 216.84C528.854 217.373 529.59 217.64 530.55 217.64C531.126 217.64 531.627 217.523 532.054 217.288C532.502 217.032 532.875 216.701 533.174 216.296C533.494 215.869 533.729 215.379 533.878 214.824C534.049 214.248 534.134 213.64 534.134 213V205.32H538.326V221H534.39V218.952ZM543.801 208.904H541.049V205.32H543.801V200.52H547.993V205.32H551.833V208.904H547.993V214.984C547.993 215.347 548.025 215.688 548.089 216.008C548.175 216.307 548.324 216.563 548.537 216.776C548.836 217.117 549.263 217.288 549.817 217.288C550.18 217.288 550.468 217.256 550.681 217.192C550.895 217.107 551.097 217 551.289 216.872L552.473 220.552C551.983 220.787 551.449 220.957 550.873 221.064C550.319 221.192 549.7 221.256 549.017 221.256C548.228 221.256 547.513 221.139 546.873 220.904C546.255 220.648 545.732 220.307 545.305 219.88C544.303 218.92 543.801 217.555 543.801 215.784V208.904ZM557.409 203.048C557.047 203.048 556.695 202.984 556.353 202.856C556.033 202.707 555.745 202.515 555.489 202.28C555.255 202.024 555.063 201.736 554.913 201.416C554.785 201.096 554.721 200.744 554.721 200.36C554.721 199.976 554.785 199.624 554.913 199.304C555.063 198.984 555.255 198.707 555.489 198.472C555.745 198.216 556.033 198.024 556.353 197.896C556.695 197.747 557.047 197.672 557.409 197.672C558.156 197.672 558.796 197.939 559.329 198.472C559.863 198.984 560.129 199.613 560.129 200.36C560.129 201.107 559.863 201.747 559.329 202.28C558.796 202.792 558.156 203.048 557.409 203.048ZM555.329 221V205.32H559.521V221H555.329ZM570.622 204.808C571.838 204.808 572.948 205.021 573.95 205.448C574.974 205.853 575.849 206.429 576.574 207.176C577.321 207.901 577.897 208.776 578.302 209.8C578.729 210.824 578.942 211.944 578.942 213.16C578.942 214.376 578.729 215.496 578.302 216.52C577.897 217.544 577.321 218.429 576.574 219.176C575.849 219.901 574.974 220.477 573.95 220.904C572.948 221.309 571.838 221.512 570.622 221.512C569.406 221.512 568.286 221.309 567.262 220.904C566.26 220.477 565.385 219.901 564.638 219.176C563.913 218.429 563.337 217.544 562.91 216.52C562.505 215.496 562.302 214.376 562.302 213.16C562.302 211.944 562.505 210.824 562.91 209.8C563.337 208.776 563.913 207.901 564.638 207.176C565.385 206.429 566.26 205.853 567.262 205.448C568.286 205.021 569.406 204.808 570.622 204.808ZM570.622 217.64C571.156 217.64 571.668 217.544 572.158 217.352C572.67 217.139 573.118 216.84 573.502 216.456C573.886 216.072 574.185 215.603 574.398 215.048C574.633 214.493 574.75 213.864 574.75 213.16C574.75 212.456 574.633 211.827 574.398 211.272C574.185 210.717 573.886 210.248 573.502 209.864C573.118 209.48 572.67 209.192 572.158 209C571.668 208.787 571.156 208.68 570.622 208.68C570.068 208.68 569.545 208.787 569.054 209C568.564 209.192 568.126 209.48 567.742 209.864C567.358 210.248 567.049 210.717 566.814 211.272C566.601 211.827 566.494 212.456 566.494 213.16C566.494 213.864 566.601 214.493 566.814 215.048C567.049 215.603 567.358 216.072 567.742 216.456C568.126 216.84 568.564 217.139 569.054 217.352C569.545 217.544 570.068 217.64 570.622 217.64ZM585.259 207.368H585.515C586.006 206.579 586.667 205.96 587.499 205.512C588.331 205.043 589.281 204.808 590.347 204.808C591.329 204.808 592.193 204.968 592.939 205.288C593.686 205.608 594.294 206.067 594.763 206.664C595.254 207.24 595.617 207.944 595.851 208.776C596.107 209.587 596.235 210.493 596.235 211.496V221H592.043V212.008C592.043 210.877 591.787 210.045 591.275 209.512C590.785 208.957 590.059 208.68 589.099 208.68C588.523 208.68 588.011 208.808 587.563 209.064C587.137 209.299 586.763 209.629 586.443 210.056C586.145 210.461 585.91 210.952 585.739 211.528C585.59 212.083 585.515 212.68 585.515 213.32V221H581.323V205.32H585.259V207.368ZM607.242 221V198.088H615.306C616.394 198.088 617.407 198.269 618.346 198.632C619.306 198.973 620.138 199.464 620.842 200.104C621.546 200.744 622.1 201.512 622.506 202.408C622.911 203.283 623.114 204.253 623.114 205.32C623.114 206.408 622.911 207.4 622.506 208.296C622.1 209.171 621.546 209.928 620.842 210.568C620.138 211.208 619.306 211.709 618.346 212.072C617.407 212.413 616.394 212.584 615.306 212.584H611.562V221H607.242ZM615.37 208.488C616.5 208.488 617.354 208.168 617.93 207.528C618.506 206.888 618.794 206.152 618.794 205.32C618.794 204.915 618.719 204.52 618.57 204.136C618.442 203.752 618.228 203.421 617.93 203.144C617.652 202.845 617.3 202.611 616.874 202.44C616.447 202.269 615.946 202.184 615.37 202.184H611.562V208.488H615.37ZM639.39 217.224C638.665 218.504 637.683 219.539 636.446 220.328C635.23 221.117 633.737 221.512 631.966 221.512C630.771 221.512 629.662 221.309 628.638 220.904C627.635 220.477 626.761 219.891 626.014 219.144C625.267 218.397 624.681 217.523 624.254 216.52C623.849 215.496 623.646 214.376 623.646 213.16C623.646 212.029 623.849 210.963 624.254 209.96C624.659 208.936 625.225 208.051 625.95 207.304C626.675 206.536 627.529 205.928 628.51 205.48C629.513 205.032 630.611 204.808 631.806 204.808C633.065 204.808 634.185 205.021 635.166 205.448C636.147 205.853 636.969 206.429 637.63 207.176C638.291 207.901 638.793 208.765 639.134 209.768C639.475 210.771 639.646 211.859 639.646 213.032C639.646 213.181 639.646 213.309 639.646 213.416C639.625 213.544 639.614 213.661 639.614 213.768C639.593 213.875 639.582 213.992 639.582 214.12H627.774C627.859 214.76 628.03 215.315 628.286 215.784C628.563 216.232 628.894 216.616 629.278 216.936C629.683 217.235 630.121 217.459 630.59 217.608C631.059 217.736 631.539 217.8 632.03 217.8C632.99 217.8 633.779 217.587 634.398 217.16C635.038 216.712 635.539 216.157 635.902 215.496L639.39 217.224ZM635.582 211.144C635.561 210.867 635.465 210.557 635.294 210.216C635.145 209.875 634.91 209.555 634.59 209.256C634.291 208.957 633.907 208.712 633.438 208.52C632.99 208.328 632.446 208.232 631.806 208.232C630.91 208.232 630.121 208.488 629.438 209C628.755 209.512 628.275 210.227 627.998 211.144H635.582ZM642.323 205.32H646.259V207.496H646.515C646.707 207.112 646.963 206.76 647.283 206.44C647.603 206.12 647.955 205.843 648.339 205.608C648.745 205.373 649.171 205.192 649.619 205.064C650.089 204.936 650.547 204.872 650.995 204.872C651.55 204.872 652.019 204.925 652.403 205.032C652.809 205.139 653.15 205.277 653.427 205.448L652.307 209.256C652.051 209.128 651.763 209.032 651.443 208.968C651.145 208.883 650.771 208.84 650.323 208.84C649.747 208.84 649.225 208.957 648.755 209.192C648.286 209.405 647.881 209.715 647.539 210.12C647.219 210.525 646.963 211.005 646.771 211.56C646.601 212.093 646.515 212.68 646.515 213.32V221H642.323V205.32ZM657.691 203.048C657.328 203.048 656.976 202.984 656.635 202.856C656.315 202.707 656.027 202.515 655.771 202.28C655.536 202.024 655.344 201.736 655.195 201.416C655.067 201.096 655.003 200.744 655.003 200.36C655.003 199.976 655.067 199.624 655.195 199.304C655.344 198.984 655.536 198.707 655.771 198.472C656.027 198.216 656.315 198.024 656.635 197.896C656.976 197.747 657.328 197.672 657.691 197.672C658.437 197.672 659.077 197.939 659.611 198.472C660.144 198.984 660.411 199.613 660.411 200.36C660.411 201.107 660.144 201.747 659.611 202.28C659.077 202.792 658.437 203.048 657.691 203.048ZM655.611 221V205.32H659.803V221H655.611ZM670.904 204.808C672.12 204.808 673.229 205.021 674.232 205.448C675.256 205.853 676.13 206.429 676.856 207.176C677.602 207.901 678.178 208.776 678.583 209.8C679.01 210.824 679.224 211.944 679.224 213.16C679.224 214.376 679.01 215.496 678.583 216.52C678.178 217.544 677.602 218.429 676.856 219.176C676.13 219.901 675.256 220.477 674.232 220.904C673.229 221.309 672.12 221.512 670.904 221.512C669.688 221.512 668.568 221.309 667.544 220.904C666.541 220.477 665.666 219.901 664.92 219.176C664.194 218.429 663.618 217.544 663.192 216.52C662.786 215.496 662.584 214.376 662.584 213.16C662.584 211.944 662.786 210.824 663.192 209.8C663.618 208.776 664.194 207.901 664.92 207.176C665.666 206.429 666.541 205.853 667.544 205.448C668.568 205.021 669.688 204.808 670.904 204.808ZM670.904 217.64C671.437 217.64 671.949 217.544 672.44 217.352C672.952 217.139 673.4 216.84 673.784 216.456C674.168 216.072 674.466 215.603 674.68 215.048C674.914 214.493 675.032 213.864 675.032 213.16C675.032 212.456 674.914 211.827 674.68 211.272C674.466 210.717 674.168 210.248 673.784 209.864C673.4 209.48 672.952 209.192 672.44 209C671.949 208.787 671.437 208.68 670.904 208.68C670.349 208.68 669.826 208.787 669.336 209C668.845 209.192 668.408 209.48 668.024 209.864C667.64 210.248 667.33 210.717 667.096 211.272C666.882 211.827 666.776 212.456 666.776 213.16C666.776 213.864 666.882 214.493 667.096 215.048C667.33 215.603 667.64 216.072 668.024 216.456C668.408 216.84 668.845 217.139 669.336 217.352C669.826 217.544 670.349 217.64 670.904 217.64ZM693.597 219.112H693.341C692.957 219.773 692.36 220.339 691.549 220.808C690.738 221.277 689.736 221.512 688.541 221.512C687.538 221.512 686.578 221.309 685.661 220.904C684.765 220.477 683.965 219.901 683.261 219.176C682.578 218.429 682.034 217.544 681.629 216.52C681.224 215.496 681.021 214.376 681.021 213.16C681.021 211.944 681.224 210.824 681.629 209.8C682.034 208.776 682.578 207.901 683.261 207.176C683.965 206.429 684.765 205.853 685.661 205.448C686.578 205.021 687.538 204.808 688.541 204.808C689.736 204.808 690.738 205.043 691.549 205.512C692.36 205.981 692.957 206.547 693.341 207.208H693.597L693.341 204.968V198.088H697.533V221H693.597V219.112ZM689.405 217.64C689.96 217.64 690.482 217.544 690.973 217.352C691.485 217.139 691.933 216.84 692.317 216.456C692.701 216.072 693.01 215.603 693.245 215.048C693.48 214.493 693.597 213.864 693.597 213.16C693.597 212.456 693.48 211.827 693.245 211.272C693.01 210.717 692.701 210.248 692.317 209.864C691.933 209.48 691.485 209.192 690.973 209C690.482 208.787 689.96 208.68 689.405 208.68C688.85 208.68 688.317 208.787 687.805 209C687.314 209.213 686.877 209.512 686.493 209.896C686.109 210.28 685.8 210.749 685.565 211.304C685.33 211.859 685.213 212.477 685.213 213.16C685.213 213.843 685.33 214.461 685.565 215.016C685.8 215.571 686.109 216.04 686.493 216.424C686.877 216.808 687.314 217.107 687.805 217.32C688.317 217.533 688.85 217.64 689.405 217.64ZM703.633 221.192C702.865 221.192 702.203 220.925 701.649 220.392C701.115 219.837 700.849 219.176 700.849 218.408C700.849 217.64 701.115 216.989 701.649 216.456C702.203 215.923 702.865 215.656 703.633 215.656C704.401 215.656 705.051 215.923 705.585 216.456C706.118 216.989 706.385 217.64 706.385 218.408C706.385 219.176 706.118 219.837 705.585 220.392C705.051 220.925 704.401 221.192 703.633 221.192ZM703.633 210.472C702.865 210.472 702.203 210.205 701.649 209.672C701.115 209.117 700.849 208.456 700.849 207.688C700.849 206.92 701.115 206.269 701.649 205.736C702.203 205.181 702.865 204.904 703.633 204.904C704.401 204.904 705.051 205.181 705.585 205.736C706.118 206.269 706.385 206.92 706.385 207.688C706.385 208.456 706.118 209.117 705.585 209.672C705.051 210.205 704.401 210.472 703.633 210.472ZM727.465 221.512C725.758 221.512 724.169 221.203 722.697 220.584C721.246 219.965 719.987 219.123 718.921 218.056C717.854 216.968 717.011 215.699 716.393 214.248C715.795 212.776 715.497 211.208 715.497 209.544C715.497 207.88 715.795 206.323 716.393 204.872C717.011 203.4 717.854 202.131 718.921 201.064C719.987 199.976 721.246 199.123 722.697 198.504C724.169 197.885 725.758 197.576 727.465 197.576C729.171 197.576 730.75 197.885 732.201 198.504C733.673 199.123 734.942 199.976 736.009 201.064C737.075 202.131 737.907 203.4 738.505 204.872C739.123 206.323 739.433 207.88 739.433 209.544C739.433 211.208 739.123 212.776 738.505 214.248C737.907 215.699 737.075 216.968 736.009 218.056C734.942 219.123 733.673 219.965 732.201 220.584C730.75 221.203 729.171 221.512 727.465 221.512ZM727.465 217.416C728.531 217.416 729.523 217.224 730.441 216.84C731.379 216.456 732.19 215.923 732.873 215.24C733.577 214.557 734.121 213.736 734.505 212.776C734.91 211.795 735.113 210.717 735.113 209.544C735.113 208.371 734.91 207.304 734.505 206.344C734.121 205.363 733.577 204.531 732.873 203.848C732.19 203.165 731.379 202.632 730.441 202.248C729.523 201.864 728.531 201.672 727.465 201.672C726.398 201.672 725.395 201.864 724.457 202.248C723.539 202.632 722.729 203.165 722.025 203.848C721.342 204.531 720.798 205.363 720.393 206.344C720.009 207.304 719.817 208.371 719.817 209.544C719.817 210.717 720.009 211.795 720.393 212.776C720.798 213.736 721.342 214.557 722.025 215.24C722.729 215.923 723.539 216.456 724.457 216.84C725.395 217.224 726.398 217.416 727.465 217.416ZM757.297 217C756.614 218.323 755.654 219.411 754.417 220.264C753.201 221.096 751.676 221.512 749.841 221.512C748.625 221.512 747.505 221.309 746.481 220.904C745.478 220.477 744.604 219.891 743.857 219.144C743.132 218.397 742.556 217.523 742.129 216.52C741.724 215.496 741.521 214.376 741.521 213.16C741.521 211.944 741.724 210.824 742.129 209.8C742.556 208.776 743.132 207.901 743.857 207.176C744.604 206.429 745.478 205.853 746.481 205.448C747.505 205.021 748.625 204.808 749.841 204.808C751.654 204.808 753.18 205.224 754.417 206.056C755.654 206.888 756.561 207.965 757.137 209.288L753.297 210.888C752.934 210.163 752.465 209.619 751.889 209.256C751.334 208.872 750.63 208.68 749.777 208.68C749.222 208.68 748.7 208.787 748.209 209C747.718 209.213 747.281 209.512 746.897 209.896C746.534 210.28 746.246 210.749 746.033 211.304C745.82 211.859 745.713 212.477 745.713 213.16C745.713 213.843 745.82 214.461 746.033 215.016C746.246 215.571 746.534 216.04 746.897 216.424C747.281 216.808 747.718 217.107 748.209 217.32C748.7 217.533 749.222 217.64 749.777 217.64C750.652 217.64 751.388 217.448 751.985 217.064C752.604 216.659 753.094 216.083 753.457 215.336L757.297 217ZM761.426 208.904H758.674V205.32H761.426V200.52H765.618V205.32H769.458V208.904H765.618V214.984C765.618 215.347 765.65 215.688 765.714 216.008C765.8 216.307 765.949 216.563 766.162 216.776C766.461 217.117 766.888 217.288 767.442 217.288C767.805 217.288 768.093 217.256 768.306 217.192C768.52 217.107 768.722 217 768.914 216.872L770.098 220.552C769.608 220.787 769.074 220.957 768.498 221.064C767.944 221.192 767.325 221.256 766.642 221.256C765.853 221.256 765.138 221.139 764.498 220.904C763.88 220.648 763.357 220.307 762.93 219.88C761.928 218.92 761.426 217.555 761.426 215.784V208.904ZM779.81 204.808C781.026 204.808 782.135 205.021 783.138 205.448C784.162 205.853 785.036 206.429 785.762 207.176C786.508 207.901 787.084 208.776 787.49 209.8C787.916 210.824 788.13 211.944 788.13 213.16C788.13 214.376 787.916 215.496 787.49 216.52C787.084 217.544 786.508 218.429 785.762 219.176C785.036 219.901 784.162 220.477 783.138 220.904C782.135 221.309 781.026 221.512 779.81 221.512C778.594 221.512 777.474 221.309 776.45 220.904C775.447 220.477 774.572 219.901 773.826 219.176C773.1 218.429 772.524 217.544 772.098 216.52C771.692 215.496 771.49 214.376 771.49 213.16C771.49 211.944 771.692 210.824 772.098 209.8C772.524 208.776 773.1 207.901 773.826 207.176C774.572 206.429 775.447 205.853 776.45 205.448C777.474 205.021 778.594 204.808 779.81 204.808ZM779.81 217.64C780.343 217.64 780.855 217.544 781.346 217.352C781.858 217.139 782.306 216.84 782.69 216.456C783.074 216.072 783.372 215.603 783.586 215.048C783.82 214.493 783.938 213.864 783.938 213.16C783.938 212.456 783.82 211.827 783.586 211.272C783.372 210.717 783.074 210.248 782.69 209.864C782.306 209.48 781.858 209.192 781.346 209C780.855 208.787 780.343 208.68 779.81 208.68C779.255 208.68 778.732 208.787 778.242 209C777.751 209.192 777.314 209.48 776.93 209.864C776.546 210.248 776.236 210.717 776.002 211.272C775.788 211.827 775.682 212.456 775.682 213.16C775.682 213.864 775.788 214.493 776.002 215.048C776.236 215.603 776.546 216.072 776.93 216.456C777.314 216.84 777.751 217.139 778.242 217.352C778.732 217.544 779.255 217.64 779.81 217.64ZM790.667 198.088H794.859V204.968L794.603 207.208H794.859C795.243 206.547 795.84 205.981 796.651 205.512C797.462 205.043 798.464 204.808 799.659 204.808C800.662 204.808 801.611 205.021 802.507 205.448C803.424 205.853 804.224 206.429 804.907 207.176C805.611 207.901 806.166 208.776 806.571 209.8C806.976 210.824 807.179 211.944 807.179 213.16C807.179 214.376 806.976 215.496 806.571 216.52C806.166 217.544 805.611 218.429 804.907 219.176C804.224 219.901 803.424 220.477 802.507 220.904C801.611 221.309 800.662 221.512 799.659 221.512C798.464 221.512 797.462 221.277 796.651 220.808C795.84 220.339 795.243 219.773 794.859 219.112H794.603V221H790.667V198.088ZM798.795 217.64C799.35 217.64 799.872 217.533 800.363 217.32C800.875 217.107 801.323 216.808 801.707 216.424C802.091 216.04 802.4 215.571 802.635 215.016C802.87 214.461 802.987 213.843 802.987 213.16C802.987 212.477 802.87 211.859 802.635 211.304C802.4 210.749 802.091 210.28 801.707 209.896C801.323 209.512 800.875 209.213 800.363 209C799.872 208.787 799.35 208.68 798.795 208.68C798.24 208.68 797.707 208.787 797.195 209C796.704 209.192 796.267 209.48 795.883 209.864C795.499 210.248 795.19 210.717 794.955 211.272C794.72 211.827 794.603 212.456 794.603 213.16C794.603 213.864 794.72 214.493 794.955 215.048C795.19 215.603 795.499 216.072 795.883 216.456C796.267 216.84 796.704 217.139 797.195 217.352C797.707 217.544 798.24 217.64 798.795 217.64ZM824.703 217.224C823.977 218.504 822.996 219.539 821.759 220.328C820.543 221.117 819.049 221.512 817.279 221.512C816.084 221.512 814.975 221.309 813.951 220.904C812.948 220.477 812.073 219.891 811.327 219.144C810.58 218.397 809.993 217.523 809.567 216.52C809.161 215.496 808.959 214.376 808.959 213.16C808.959 212.029 809.161 210.963 809.567 209.96C809.972 208.936 810.537 208.051 811.263 207.304C811.988 206.536 812.841 205.928 813.823 205.48C814.825 205.032 815.924 204.808 817.119 204.808C818.377 204.808 819.497 205.021 820.479 205.448C821.46 205.853 822.281 206.429 822.943 207.176C823.604 207.901 824.105 208.765 824.447 209.768C824.788 210.771 824.958 211.859 824.958 213.032C824.958 213.181 824.958 213.309 824.958 213.416C824.937 213.544 824.927 213.661 824.927 213.768C824.905 213.875 824.895 213.992 824.895 214.12H813.087C813.172 214.76 813.343 215.315 813.599 215.784C813.876 216.232 814.207 216.616 814.591 216.936C814.996 217.235 815.433 217.459 815.903 217.608C816.372 217.736 816.852 217.8 817.343 217.8C818.303 217.8 819.092 217.587 819.711 217.16C820.351 216.712 820.852 216.157 821.215 215.496L824.703 217.224ZM820.895 211.144C820.873 210.867 820.777 210.557 820.607 210.216C820.457 209.875 820.223 209.555 819.903 209.256C819.604 208.957 819.22 208.712 818.751 208.52C818.303 208.328 817.759 208.232 817.119 208.232C816.223 208.232 815.433 208.488 814.751 209C814.068 209.512 813.588 210.227 813.311 211.144H820.895ZM827.636 205.32H831.572V207.496H831.828C832.02 207.112 832.276 206.76 832.596 206.44C832.916 206.12 833.268 205.843 833.652 205.608C834.057 205.373 834.484 205.192 834.932 205.064C835.401 204.936 835.86 204.872 836.308 204.872C836.862 204.872 837.332 204.925 837.716 205.032C838.121 205.139 838.462 205.277 838.74 205.448L837.62 209.256C837.364 209.128 837.076 209.032 836.756 208.968C836.457 208.883 836.084 208.84 835.636 208.84C835.06 208.84 834.537 208.957 834.068 209.192C833.598 209.405 833.193 209.715 832.852 210.12C832.532 210.525 832.276 211.005 832.084 211.56C831.913 212.093 831.828 212.68 831.828 213.32V221H827.636V205.32ZM848.242 219.56L857.362 203.272L857.266 203.08H847.186L847.25 199.112H862.098V203.272L851.762 221.512L848.242 219.56ZM872.198 209.224H883.046V212.936H872.198V209.224ZM904.402 221.512C902.695 221.512 901.106 221.203 899.634 220.584C898.183 219.965 896.925 219.123 895.858 218.056C894.791 216.968 893.949 215.699 893.33 214.248C892.733 212.776 892.434 211.208 892.434 209.544C892.434 207.88 892.733 206.323 893.33 204.872C893.949 203.4 894.791 202.131 895.858 201.064C896.925 199.976 898.183 199.123 899.634 198.504C901.106 197.885 902.695 197.576 904.402 197.576C906.109 197.576 907.687 197.885 909.138 198.504C910.61 199.123 911.879 199.976 912.946 201.064C914.013 202.131 914.845 203.4 915.442 204.872C916.061 206.323 916.37 207.88 916.37 209.544C916.37 211.208 916.061 212.776 915.442 214.248C914.845 215.699 914.013 216.968 912.946 218.056C911.879 219.123 910.61 219.965 909.138 220.584C907.687 221.203 906.109 221.512 904.402 221.512ZM904.402 217.416C905.469 217.416 906.461 217.224 907.378 216.84C908.317 216.456 909.127 215.923 909.81 215.24C910.514 214.557 911.058 213.736 911.442 212.776C911.847 211.795 912.05 210.717 912.05 209.544C912.05 208.371 911.847 207.304 911.442 206.344C911.058 205.363 910.514 204.531 909.81 203.848C909.127 203.165 908.317 202.632 907.378 202.248C906.461 201.864 905.469 201.672 904.402 201.672C903.335 201.672 902.333 201.864 901.394 202.248C900.477 202.632 899.666 203.165 898.962 203.848C898.279 204.531 897.735 205.363 897.33 206.344C896.946 207.304 896.754 208.371 896.754 209.544C896.754 210.717 896.946 211.795 897.33 212.776C897.735 213.736 898.279 214.557 898.962 215.24C899.666 215.923 900.477 216.456 901.394 216.84C902.333 217.224 903.335 217.416 904.402 217.416ZM934.235 217C933.552 218.323 932.592 219.411 931.355 220.264C930.139 221.096 928.613 221.512 926.779 221.512C925.563 221.512 924.443 221.309 923.419 220.904C922.416 220.477 921.541 219.891 920.795 219.144C920.069 218.397 919.493 217.523 919.067 216.52C918.661 215.496 918.459 214.376 918.459 213.16C918.459 211.944 918.661 210.824 919.067 209.8C919.493 208.776 920.069 207.901 920.795 207.176C921.541 206.429 922.416 205.853 923.419 205.448C924.443 205.021 925.563 204.808 926.779 204.808C928.592 204.808 930.117 205.224 931.355 206.056C932.592 206.888 933.499 207.965 934.075 209.288L930.235 210.888C929.872 210.163 929.403 209.619 928.827 209.256C928.272 208.872 927.568 208.68 926.715 208.68C926.16 208.68 925.637 208.787 925.147 209C924.656 209.213 924.219 209.512 923.835 209.896C923.472 210.28 923.184 210.749 922.971 211.304C922.757 211.859 922.651 212.477 922.651 213.16C922.651 213.843 922.757 214.461 922.971 215.016C923.184 215.571 923.472 216.04 923.835 216.424C924.219 216.808 924.656 217.107 925.147 217.32C925.637 217.533 926.16 217.64 926.715 217.64C927.589 217.64 928.325 217.448 928.923 217.064C929.541 216.659 930.032 216.083 930.395 215.336L934.235 217ZM938.364 208.904H935.612V205.32H938.364V200.52H942.556V205.32H946.396V208.904H942.556V214.984C942.556 215.347 942.588 215.688 942.652 216.008C942.737 216.307 942.886 216.563 943.1 216.776C943.398 217.117 943.825 217.288 944.38 217.288C944.742 217.288 945.03 217.256 945.244 217.192C945.457 217.107 945.66 217 945.852 216.872L947.036 220.552C946.545 220.787 946.012 220.957 945.436 221.064C944.881 221.192 944.262 221.256 943.58 221.256C942.79 221.256 942.076 221.139 941.436 220.904C940.817 220.648 940.294 220.307 939.868 219.88C938.865 218.92 938.364 217.555 938.364 215.784V208.904ZM956.747 204.808C957.963 204.808 959.073 205.021 960.075 205.448C961.099 205.853 961.974 206.429 962.699 207.176C963.446 207.901 964.022 208.776 964.427 209.8C964.854 210.824 965.067 211.944 965.067 213.16C965.067 214.376 964.854 215.496 964.427 216.52C964.022 217.544 963.446 218.429 962.699 219.176C961.974 219.901 961.099 220.477 960.075 220.904C959.073 221.309 957.963 221.512 956.747 221.512C955.531 221.512 954.411 221.309 953.387 220.904C952.385 220.477 951.51 219.901 950.763 219.176C950.038 218.429 949.462 217.544 949.035 216.52C948.63 215.496 948.427 214.376 948.427 213.16C948.427 211.944 948.63 210.824 949.035 209.8C949.462 208.776 950.038 207.901 950.763 207.176C951.51 206.429 952.385 205.853 953.387 205.448C954.411 205.021 955.531 204.808 956.747 204.808ZM956.747 217.64C957.281 217.64 957.793 217.544 958.283 217.352C958.795 217.139 959.243 216.84 959.627 216.456C960.011 216.072 960.31 215.603 960.523 215.048C960.758 214.493 960.875 213.864 960.875 213.16C960.875 212.456 960.758 211.827 960.523 211.272C960.31 210.717 960.011 210.248 959.627 209.864C959.243 209.48 958.795 209.192 958.283 209C957.793 208.787 957.281 208.68 956.747 208.68C956.193 208.68 955.67 208.787 955.179 209C954.689 209.192 954.251 209.48 953.867 209.864C953.483 210.248 953.174 210.717 952.939 211.272C952.726 211.827 952.619 212.456 952.619 213.16C952.619 213.864 952.726 214.493 952.939 215.048C953.174 215.603 953.483 216.072 953.867 216.456C954.251 216.84 954.689 217.139 955.179 217.352C955.67 217.544 956.193 217.64 956.747 217.64ZM967.605 198.088H971.797V204.968L971.541 207.208H971.797C972.181 206.547 972.778 205.981 973.589 205.512C974.399 205.043 975.402 204.808 976.597 204.808C977.599 204.808 978.549 205.021 979.445 205.448C980.362 205.853 981.162 206.429 981.845 207.176C982.549 207.901 983.103 208.776 983.509 209.8C983.914 210.824 984.117 211.944 984.117 213.16C984.117 214.376 983.914 215.496 983.509 216.52C983.103 217.544 982.549 218.429 981.845 219.176C981.162 219.901 980.362 220.477 979.445 220.904C978.549 221.309 977.599 221.512 976.597 221.512C975.402 221.512 974.399 221.277 973.589 220.808C972.778 220.339 972.181 219.773 971.797 219.112H971.541V221H967.605V198.088ZM975.733 217.64C976.287 217.64 976.81 217.533 977.301 217.32C977.813 217.107 978.261 216.808 978.645 216.424C979.029 216.04 979.338 215.571 979.573 215.016C979.807 214.461 979.925 213.843 979.925 213.16C979.925 212.477 979.807 211.859 979.573 211.304C979.338 210.749 979.029 210.28 978.645 209.896C978.261 209.512 977.813 209.213 977.301 209C976.81 208.787 976.287 208.68 975.733 208.68C975.178 208.68 974.645 208.787 974.133 209C973.642 209.192 973.205 209.48 972.821 209.864C972.437 210.248 972.127 210.717 971.893 211.272C971.658 211.827 971.541 212.456 971.541 213.16C971.541 213.864 971.658 214.493 971.893 215.048C972.127 215.603 972.437 216.072 972.821 216.456C973.205 216.84 973.642 217.139 974.133 217.352C974.645 217.544 975.178 217.64 975.733 217.64ZM1001.64 217.224C1000.91 218.504 999.933 219.539 998.696 220.328C997.48 221.117 995.987 221.512 994.216 221.512C993.021 221.512 991.912 221.309 990.888 220.904C989.885 220.477 989.011 219.891 988.264 219.144C987.517 218.397 986.931 217.523 986.504 216.52C986.099 215.496 985.896 214.376 985.896 213.16C985.896 212.029 986.099 210.963 986.504 209.96C986.909 208.936 987.475 208.051 988.2 207.304C988.925 206.536 989.779 205.928 990.76 205.48C991.763 205.032 992.861 204.808 994.056 204.808C995.315 204.808 996.435 205.021 997.416 205.448C998.397 205.853 999.219 206.429 999.88 207.176C1000.54 207.901 1001.04 208.765 1001.38 209.768C1001.73 210.771 1001.9 211.859 1001.9 213.032C1001.9 213.181 1001.9 213.309 1001.9 213.416C1001.87 213.544 1001.86 213.661 1001.86 213.768C1001.84 213.875 1001.83 213.992 1001.83 214.12H990.024C990.109 214.76 990.28 215.315 990.536 215.784C990.813 216.232 991.144 216.616 991.528 216.936C991.933 217.235 992.371 217.459 992.84 217.608C993.309 217.736 993.789 217.8 994.28 217.8C995.24 217.8 996.029 217.587 996.648 217.16C997.288 216.712 997.789 216.157 998.152 215.496L1001.64 217.224ZM997.832 211.144C997.811 210.867 997.715 210.557 997.544 210.216C997.395 209.875 997.16 209.555 996.84 209.256C996.541 208.957 996.157 208.712 995.688 208.52C995.24 208.328 994.696 208.232 994.056 208.232C993.16 208.232 992.371 208.488 991.688 209C991.005 209.512 990.525 210.227 990.248 211.144H997.832ZM1004.57 205.32H1008.51V207.496H1008.77C1008.96 207.112 1009.21 206.76 1009.53 206.44C1009.85 206.12 1010.21 205.843 1010.59 205.608C1010.99 205.373 1011.42 205.192 1011.87 205.064C1012.34 204.936 1012.8 204.872 1013.25 204.872C1013.8 204.872 1014.27 204.925 1014.65 205.032C1015.06 205.139 1015.4 205.277 1015.68 205.448L1014.56 209.256C1014.3 209.128 1014.01 209.032 1013.69 208.968C1013.39 208.883 1013.02 208.84 1012.57 208.84C1012 208.84 1011.47 208.957 1011.01 209.192C1010.54 209.405 1010.13 209.715 1009.79 210.12C1009.47 210.525 1009.21 211.005 1009.02 211.56C1008.85 212.093 1008.77 212.68 1008.77 213.32V221H1004.57V205.32ZM1024.32 221V217.192C1025.57 215.955 1026.74 214.803 1027.8 213.736C1028.25 213.288 1028.71 212.829 1029.18 212.36C1029.65 211.891 1030.09 211.453 1030.49 211.048C1030.9 210.643 1031.26 210.28 1031.58 209.96C1031.9 209.619 1032.15 209.352 1032.32 209.16C1032.66 208.755 1032.96 208.392 1033.21 208.072C1033.49 207.752 1033.7 207.443 1033.85 207.144C1034.02 206.824 1034.15 206.515 1034.24 206.216C1034.32 205.896 1034.36 205.555 1034.36 205.192C1034.36 204.488 1034.09 203.88 1033.53 203.368C1032.98 202.835 1032.22 202.568 1031.26 202.568C1030.3 202.568 1029.55 202.845 1029.02 203.4C1028.49 203.933 1028.12 204.541 1027.93 205.224L1024.12 203.656C1024.29 203.08 1024.57 202.493 1024.96 201.896C1025.34 201.277 1025.83 200.733 1026.43 200.264C1027.03 199.773 1027.73 199.379 1028.54 199.08C1029.37 198.76 1030.3 198.6 1031.32 198.6C1032.43 198.6 1033.44 198.771 1034.33 199.112C1035.23 199.432 1035.99 199.88 1036.6 200.456C1037.22 201.032 1037.7 201.715 1038.04 202.504C1038.39 203.272 1038.56 204.104 1038.56 205C1038.56 206.365 1038.21 207.624 1037.53 208.776C1036.87 209.907 1036.06 210.963 1035.1 211.944L1032.35 214.696C1031.62 215.421 1030.8 216.232 1029.88 217.128L1030.01 217.32H1038.88V221H1024.32ZM1050.87 221.512C1049.47 221.512 1048.2 221.224 1047.07 220.648C1045.93 220.051 1044.96 219.24 1044.15 218.216C1043.36 217.192 1042.76 215.987 1042.33 214.6C1041.9 213.192 1041.69 211.677 1041.69 210.056C1041.69 208.435 1041.9 206.931 1042.33 205.544C1042.76 204.136 1043.36 202.92 1044.15 201.896C1044.96 200.872 1045.93 200.072 1047.07 199.496C1048.2 198.899 1049.47 198.6 1050.87 198.6C1052.28 198.6 1053.55 198.899 1054.68 199.496C1055.81 200.072 1056.77 200.872 1057.56 201.896C1058.37 202.92 1058.99 204.136 1059.42 205.544C1059.84 206.931 1060.06 208.435 1060.06 210.056C1060.06 211.677 1059.84 213.192 1059.42 214.6C1058.99 215.987 1058.37 217.192 1057.56 218.216C1056.77 219.24 1055.81 220.051 1054.68 220.648C1053.55 221.224 1052.28 221.512 1050.87 221.512ZM1050.87 217.544C1051.64 217.544 1052.33 217.363 1052.95 217C1053.57 216.616 1054.09 216.093 1054.52 215.432C1054.97 214.749 1055.3 213.949 1055.51 213.032C1055.75 212.115 1055.87 211.123 1055.87 210.056C1055.87 208.968 1055.75 207.976 1055.51 207.08C1055.3 206.163 1054.97 205.373 1054.52 204.712C1054.09 204.029 1053.57 203.507 1052.95 203.144C1052.33 202.76 1051.64 202.568 1050.87 202.568C1050.08 202.568 1049.38 202.76 1048.76 203.144C1048.14 203.507 1047.62 204.029 1047.19 204.712C1046.77 205.373 1046.44 206.163 1046.2 207.08C1045.99 207.976 1045.88 208.968 1045.88 210.056C1045.88 211.123 1045.99 212.115 1046.2 213.032C1046.44 213.949 1046.77 214.749 1047.19 215.432C1047.62 216.093 1048.14 216.616 1048.76 217C1049.38 217.363 1050.08 217.544 1050.87 217.544ZM1062.88 223.848L1064.76 220.936C1064.3 220.765 1063.89 220.456 1063.55 220.008C1063.23 219.56 1063.07 219.027 1063.07 218.408C1063.07 217.64 1063.34 216.989 1063.87 216.456C1064.42 215.923 1065.08 215.656 1065.85 215.656C1066.62 215.656 1067.27 215.923 1067.8 216.456C1068.34 216.989 1068.6 217.64 1068.6 218.408C1068.6 218.813 1068.54 219.176 1068.41 219.496C1068.28 219.795 1068.08 220.147 1067.8 220.552L1064.76 225.096L1062.88 223.848ZM1078.66 221V217.192C1079.92 215.955 1081.08 214.803 1082.15 213.736C1082.6 213.288 1083.05 212.829 1083.52 212.36C1083.99 211.891 1084.43 211.453 1084.84 211.048C1085.24 210.643 1085.6 210.28 1085.92 209.96C1086.24 209.619 1086.49 209.352 1086.66 209.16C1087 208.755 1087.3 208.392 1087.56 208.072C1087.83 207.752 1088.05 207.443 1088.2 207.144C1088.37 206.824 1088.49 206.515 1088.58 206.216C1088.66 205.896 1088.71 205.555 1088.71 205.192C1088.71 204.488 1088.43 203.88 1087.88 203.368C1087.32 202.835 1086.56 202.568 1085.6 202.568C1084.64 202.568 1083.9 202.845 1083.36 203.4C1082.83 203.933 1082.47 204.541 1082.28 205.224L1078.47 203.656C1078.64 203.08 1078.92 202.493 1079.3 201.896C1079.68 201.277 1080.17 200.733 1080.77 200.264C1081.37 199.773 1082.07 199.379 1082.88 199.08C1083.72 198.76 1084.64 198.6 1085.67 198.6C1086.78 198.6 1087.78 198.771 1088.68 199.112C1089.57 199.432 1090.33 199.88 1090.95 200.456C1091.57 201.032 1092.05 201.715 1092.39 202.504C1092.73 203.272 1092.9 204.104 1092.9 205C1092.9 206.365 1092.56 207.624 1091.88 208.776C1091.21 209.907 1090.4 210.963 1089.44 211.944L1086.69 214.696C1085.97 215.421 1085.14 216.232 1084.23 217.128L1084.36 217.32H1093.22V221H1078.66ZM1105.22 221.512C1103.81 221.512 1102.54 221.224 1101.41 220.648C1100.28 220.051 1099.31 219.24 1098.5 218.216C1097.71 217.192 1097.1 215.987 1096.67 214.6C1096.25 213.192 1096.03 211.677 1096.03 210.056C1096.03 208.435 1096.25 206.931 1096.67 205.544C1097.1 204.136 1097.71 202.92 1098.5 201.896C1099.31 200.872 1100.28 200.072 1101.41 199.496C1102.54 198.899 1103.81 198.6 1105.22 198.6C1106.63 198.6 1107.89 198.899 1109.03 199.496C1110.16 200.072 1111.12 200.872 1111.91 201.896C1112.72 202.92 1113.33 204.136 1113.76 205.544C1114.19 206.931 1114.4 208.435 1114.4 210.056C1114.4 211.677 1114.19 213.192 1113.76 214.6C1113.33 215.987 1112.72 217.192 1111.91 218.216C1111.12 219.24 1110.16 220.051 1109.03 220.648C1107.89 221.224 1106.63 221.512 1105.22 221.512ZM1105.22 217.544C1105.99 217.544 1106.68 217.363 1107.3 217C1107.92 216.616 1108.44 216.093 1108.87 215.432C1109.31 214.749 1109.64 213.949 1109.86 213.032C1110.09 212.115 1110.21 211.123 1110.21 210.056C1110.21 208.968 1110.09 207.976 1109.86 207.08C1109.64 206.163 1109.31 205.373 1108.87 204.712C1108.44 204.029 1107.92 203.507 1107.3 203.144C1106.68 202.76 1105.99 202.568 1105.22 202.568C1104.43 202.568 1103.72 202.76 1103.11 203.144C1102.49 203.507 1101.96 204.029 1101.54 204.712C1101.11 205.373 1100.78 206.163 1100.55 207.08C1100.33 207.976 1100.23 208.968 1100.23 210.056C1100.23 211.123 1100.33 212.115 1100.55 213.032C1100.78 213.949 1101.11 214.749 1101.54 215.432C1101.96 216.093 1102.49 216.616 1103.11 217C1103.72 217.363 1104.43 217.544 1105.22 217.544ZM1116.97 221V217.192C1118.23 215.955 1119.39 214.803 1120.46 213.736C1120.91 213.288 1121.37 212.829 1121.84 212.36C1122.31 211.891 1122.74 211.453 1123.15 211.048C1123.55 210.643 1123.92 210.28 1124.24 209.96C1124.56 209.619 1124.8 209.352 1124.97 209.16C1125.31 208.755 1125.61 208.392 1125.87 208.072C1126.15 207.752 1126.36 207.443 1126.51 207.144C1126.68 206.824 1126.81 206.515 1126.89 206.216C1126.98 205.896 1127.02 205.555 1127.02 205.192C1127.02 204.488 1126.74 203.88 1126.19 203.368C1125.63 202.835 1124.88 202.568 1123.92 202.568C1122.96 202.568 1122.21 202.845 1121.68 203.4C1121.14 203.933 1120.78 204.541 1120.59 205.224L1116.78 203.656C1116.95 203.08 1117.23 202.493 1117.61 201.896C1118 201.277 1118.49 200.733 1119.08 200.264C1119.68 199.773 1120.39 199.379 1121.2 199.08C1122.03 198.76 1122.96 198.6 1123.98 198.6C1125.09 198.6 1126.09 198.771 1126.99 199.112C1127.88 199.432 1128.64 199.88 1129.26 200.456C1129.88 201.032 1130.36 201.715 1130.7 202.504C1131.04 203.272 1131.21 204.104 1131.21 205C1131.21 206.365 1130.87 207.624 1130.19 208.776C1129.53 209.907 1128.72 210.963 1127.76 211.944L1125 214.696C1124.28 215.421 1123.46 216.232 1122.54 217.128L1122.67 217.32H1131.53V221H1116.97ZM1144.33 221V216.968H1134.22V213.576L1143.95 199.112H1148.49V213.064H1151.24V216.968H1148.49V221H1144.33ZM1144.33 205.352H1144.07L1138.86 213.064H1144.33V205.352Z" fill="white"/>
<path d="M957.304 8.088H971.832V12.184H961.624V17.752H970.808V21.848H961.624V31H957.304V8.088ZM976.659 13.048C976.297 13.048 975.945 12.984 975.603 12.856C975.283 12.7067 974.995 12.5147 974.739 12.28C974.505 12.024 974.313 11.736 974.163 11.416C974.035 11.096 973.971 10.744 973.971 10.36C973.971 9.976 974.035 9.624 974.163 9.304C974.313 8.984 974.505 8.70667 974.739 8.472C974.995 8.216 975.283 8.024 975.603 7.896C975.945 7.74667 976.297 7.672 976.659 7.672C977.406 7.672 978.046 7.93867 978.579 8.472C979.113 8.984 979.379 9.61333 979.379 10.36C979.379 11.1067 979.113 11.7467 978.579 12.28C978.046 12.792 977.406 13.048 976.659 13.048ZM974.579 31V15.32H978.771V31H974.579ZM986.541 17.368H986.797C987.287 16.5787 987.949 15.96 988.781 15.512C989.613 15.0427 990.562 14.808 991.629 14.808C992.61 14.808 993.474 14.968 994.221 15.288C994.967 15.608 995.575 16.0667 996.045 16.664C996.535 17.24 996.898 17.944 997.133 18.776C997.389 19.5867 997.517 20.4933 997.517 21.496V31H993.325V22.008C993.325 20.8773 993.069 20.0453 992.557 19.512C992.066 18.9573 991.341 18.68 990.381 18.68C989.805 18.68 989.293 18.808 988.845 19.064C988.418 19.2987 988.045 19.6293 987.725 20.056C987.426 20.4613 987.191 20.952 987.021 21.528C986.871 22.0827 986.797 22.68 986.797 23.32V31H982.605V15.32H986.541V17.368ZM1010.49 29.336H1010.23C1009.74 29.9333 1009.14 30.4453 1008.44 30.872C1007.76 31.2987 1006.87 31.512 1005.78 31.512C1004.97 31.512 1004.2 31.3733 1003.48 31.096C1002.78 30.84 1002.16 30.4773 1001.62 30.008C1001.09 29.5387 1000.67 28.9733 1000.38 28.312C1000.08 27.6507 999.927 26.9253 999.927 26.136C999.927 25.3253 1000.09 24.6 1000.41 23.96C1000.73 23.2987 1001.18 22.7333 1001.75 22.264C1002.33 21.7947 1003 21.4427 1003.77 21.208C1004.56 20.952 1005.41 20.824 1006.33 20.824C1007.35 20.824 1008.19 20.9093 1008.86 21.08C1009.52 21.2293 1010.06 21.3893 1010.49 21.56V21.08C1010.49 20.248 1010.16 19.5653 1009.5 19.032C1008.83 18.4773 1008.01 18.2 1007.03 18.2C1005.58 18.2 1004.35 18.808 1003.35 20.024L1000.31 17.944C1001.98 15.8533 1004.25 14.808 1007.13 14.808C1009.56 14.808 1011.42 15.384 1012.7 16.536C1013.98 17.6667 1014.62 19.352 1014.62 21.592V31H1010.49V29.336ZM1010.49 24.632C1010 24.3973 1009.48 24.216 1008.95 24.088C1008.44 23.9387 1007.87 23.864 1007.26 23.864C1006.25 23.864 1005.47 24.088 1004.92 24.536C1004.39 24.9627 1004.12 25.496 1004.12 26.136C1004.12 26.776 1004.38 27.288 1004.89 27.672C1005.42 28.056 1006.03 28.248 1006.71 28.248C1007.27 28.248 1007.78 28.152 1008.25 27.96C1008.72 27.7467 1009.11 27.48 1009.43 27.16C1009.77 26.8187 1010.03 26.4347 1010.2 26.008C1010.39 25.56 1010.49 25.1013 1010.49 24.632ZM1017.95 31V8.088H1022.14V31H1017.95ZM1037.59 12.184V17.496H1046.78V21.592H1037.59V26.904H1047.8V31H1033.27V8.088H1047.8V12.184H1037.59ZM1048.97 15.32H1053.74L1057.64 25.304H1057.87L1061.8 15.32H1066.54L1059.79 31H1055.66L1048.97 15.32ZM1077.8 29.336H1077.54C1077.05 29.9333 1076.46 30.4453 1075.75 30.872C1075.07 31.2987 1074.18 31.512 1073.1 31.512C1072.29 31.512 1071.52 31.3733 1070.79 31.096C1070.09 30.84 1069.47 30.4773 1068.94 30.008C1068.4 29.5387 1067.99 28.9733 1067.69 28.312C1067.39 27.6507 1067.24 26.9253 1067.24 26.136C1067.24 25.3253 1067.4 24.6 1067.72 23.96C1068.04 23.2987 1068.49 22.7333 1069.06 22.264C1069.64 21.7947 1070.31 21.4427 1071.08 21.208C1071.87 20.952 1072.72 20.824 1073.64 20.824C1074.66 20.824 1075.51 20.9093 1076.17 21.08C1076.83 21.2293 1077.37 21.3893 1077.8 21.56V21.08C1077.8 20.248 1077.47 19.5653 1076.81 19.032C1076.15 18.4773 1075.33 18.2 1074.34 18.2C1072.89 18.2 1071.67 18.808 1070.66 20.024L1067.62 17.944C1069.29 15.8533 1071.56 14.808 1074.44 14.808C1076.87 14.808 1078.73 15.384 1080.01 16.536C1081.29 17.6667 1081.93 19.352 1081.93 21.592V31H1077.8V29.336ZM1077.8 24.632C1077.31 24.3973 1076.8 24.216 1076.26 24.088C1075.75 23.9387 1075.19 23.864 1074.57 23.864C1073.57 23.864 1072.79 24.088 1072.23 24.536C1071.7 24.9627 1071.43 25.496 1071.43 26.136C1071.43 26.776 1071.69 27.288 1072.2 27.672C1072.73 28.056 1073.34 28.248 1074.02 28.248C1074.58 28.248 1075.09 28.152 1075.56 27.96C1076.03 27.7467 1076.42 27.48 1076.74 27.16C1077.09 26.8187 1077.34 26.4347 1077.51 26.008C1077.7 25.56 1077.8 25.1013 1077.8 24.632ZM1085.26 31V8.088H1089.45V31H1085.26ZM1103.89 28.952H1103.63C1103.14 29.7413 1102.48 30.3707 1101.65 30.84C1100.82 31.288 1099.87 31.512 1098.8 31.512C1096.82 31.512 1095.34 30.904 1094.35 29.688C1093.39 28.472 1092.91 26.8507 1092.91 24.824V15.32H1097.11V24.312C1097.11 25.4427 1097.35 26.2853 1097.84 26.84C1098.35 27.3733 1099.09 27.64 1100.05 27.64C1100.63 27.64 1101.13 27.5227 1101.55 27.288C1102 27.032 1102.38 26.7013 1102.67 26.296C1102.99 25.8693 1103.23 25.3787 1103.38 24.824C1103.55 24.248 1103.63 23.64 1103.63 23V15.32H1107.83V31H1103.89V28.952ZM1120.92 29.336H1120.67C1120.18 29.9333 1119.58 30.4453 1118.88 30.872C1118.19 31.2987 1117.31 31.512 1116.22 31.512C1115.41 31.512 1114.64 31.3733 1113.92 31.096C1113.21 30.84 1112.59 30.4773 1112.06 30.008C1111.53 29.5387 1111.11 28.9733 1110.81 28.312C1110.51 27.6507 1110.36 26.9253 1110.36 26.136C1110.36 25.3253 1110.52 24.6 1110.84 23.96C1111.16 23.2987 1111.61 22.7333 1112.19 22.264C1112.76 21.7947 1113.44 21.4427 1114.2 21.208C1114.99 20.952 1115.85 20.824 1116.76 20.824C1117.79 20.824 1118.63 20.9093 1119.29 21.08C1119.95 21.2293 1120.5 21.3893 1120.92 21.56V21.08C1120.92 20.248 1120.59 19.5653 1119.93 19.032C1119.27 18.4773 1118.45 18.2 1117.47 18.2C1116.02 18.2 1114.79 18.808 1113.79 20.024L1110.75 17.944C1112.41 15.8533 1114.68 14.808 1117.56 14.808C1120 14.808 1121.85 15.384 1123.13 16.536C1124.41 17.6667 1125.05 19.352 1125.05 21.592V31H1120.92V29.336ZM1120.92 24.632C1120.43 24.3973 1119.92 24.216 1119.39 24.088C1118.88 23.9387 1118.31 23.864 1117.69 23.864C1116.69 23.864 1115.91 24.088 1115.36 24.536C1114.82 24.9627 1114.56 25.496 1114.56 26.136C1114.56 26.776 1114.81 27.288 1115.32 27.672C1115.86 28.056 1116.47 28.248 1117.15 28.248C1117.7 28.248 1118.22 28.152 1118.68 27.96C1119.15 27.7467 1119.55 27.48 1119.87 27.16C1120.21 26.8187 1120.47 26.4347 1120.64 26.008C1120.83 25.56 1120.92 25.1013 1120.92 24.632ZM1129.8 18.904H1127.05V15.32H1129.8V10.52H1133.99V15.32H1137.83V18.904H1133.99V24.984C1133.99 25.3467 1134.03 25.688 1134.09 26.008C1134.17 26.3067 1134.32 26.5627 1134.54 26.776C1134.84 27.1173 1135.26 27.288 1135.82 27.288C1136.18 27.288 1136.47 27.256 1136.68 27.192C1136.89 27.1067 1137.1 27 1137.29 26.872L1138.47 30.552C1137.98 30.7867 1137.45 30.9573 1136.87 31.064C1136.32 31.192 1135.7 31.256 1135.02 31.256C1134.23 31.256 1133.51 31.1387 1132.87 30.904C1132.25 30.648 1131.73 30.3067 1131.31 29.88C1130.3 28.92 1129.8 27.5547 1129.8 25.784V18.904ZM1143.41 13.048C1143.05 13.048 1142.69 12.984 1142.35 12.856C1142.03 12.7067 1141.75 12.5147 1141.49 12.28C1141.25 12.024 1141.06 11.736 1140.91 11.416C1140.79 11.096 1140.72 10.744 1140.72 10.36C1140.72 9.976 1140.79 9.624 1140.91 9.304C1141.06 8.984 1141.25 8.70667 1141.49 8.472C1141.75 8.216 1142.03 8.024 1142.35 7.896C1142.69 7.74667 1143.05 7.672 1143.41 7.672C1144.16 7.672 1144.8 7.93867 1145.33 8.472C1145.86 8.984 1146.13 9.61333 1146.13 10.36C1146.13 11.1067 1145.86 11.7467 1145.33 12.28C1144.8 12.792 1144.16 13.048 1143.41 13.048ZM1141.33 31V15.32H1145.52V31H1141.33ZM1156.62 14.808C1157.84 14.808 1158.95 15.0213 1159.95 15.448C1160.97 15.8533 1161.85 16.4293 1162.57 17.176C1163.32 17.9013 1163.9 18.776 1164.3 19.8C1164.73 20.824 1164.94 21.944 1164.94 23.16C1164.94 24.376 1164.73 25.496 1164.3 26.52C1163.9 27.544 1163.32 28.4293 1162.57 29.176C1161.85 29.9013 1160.97 30.4773 1159.95 30.904C1158.95 31.3093 1157.84 31.512 1156.62 31.512C1155.41 31.512 1154.29 31.3093 1153.26 30.904C1152.26 30.4773 1151.38 29.9013 1150.64 29.176C1149.91 28.4293 1149.34 27.544 1148.91 26.52C1148.5 25.496 1148.3 24.376 1148.3 23.16C1148.3 21.944 1148.5 20.824 1148.91 19.8C1149.34 18.776 1149.91 17.9013 1150.64 17.176C1151.38 16.4293 1152.26 15.8533 1153.26 15.448C1154.29 15.0213 1155.41 14.808 1156.62 14.808ZM1156.62 27.64C1157.16 27.64 1157.67 27.544 1158.16 27.352C1158.67 27.1387 1159.12 26.84 1159.5 26.456C1159.89 26.072 1160.18 25.6027 1160.4 25.048C1160.63 24.4933 1160.75 23.864 1160.75 23.16C1160.75 22.456 1160.63 21.8267 1160.4 21.272C1160.18 20.7173 1159.89 20.248 1159.5 19.864C1159.12 19.48 1158.67 19.192 1158.16 19C1157.67 18.7867 1157.16 18.68 1156.62 18.68C1156.07 18.68 1155.54 18.7867 1155.05 19C1154.56 19.192 1154.13 19.48 1153.74 19.864C1153.36 20.248 1153.05 20.7173 1152.81 21.272C1152.6 21.8267 1152.49 22.456 1152.49 23.16C1152.49 23.864 1152.6 24.4933 1152.81 25.048C1153.05 25.6027 1153.36 26.072 1153.74 26.456C1154.13 26.84 1154.56 27.1387 1155.05 27.352C1155.54 27.544 1156.07 27.64 1156.62 27.64ZM1171.26 17.368H1171.52C1172.01 16.5787 1172.67 15.96 1173.5 15.512C1174.33 15.0427 1175.28 14.808 1176.35 14.808C1177.33 14.808 1178.19 14.968 1178.94 15.288C1179.69 15.608 1180.29 16.0667 1180.76 16.664C1181.25 17.24 1181.62 17.944 1181.85 18.776C1182.11 19.5867 1182.24 20.4933 1182.24 21.496V31H1178.04V22.008C1178.04 20.8773 1177.79 20.0453 1177.28 19.512C1176.78 18.9573 1176.06 18.68 1175.1 18.68C1174.52 18.68 1174.01 18.808 1173.56 19.064C1173.14 19.2987 1172.76 19.6293 1172.44 20.056C1172.14 20.4613 1171.91 20.952 1171.74 21.528C1171.59 22.0827 1171.52 22.68 1171.52 23.32V31H1167.32V15.32H1171.26V17.368ZM1202.39 29.336H1202.14C1201.65 29.9333 1201.05 30.4453 1200.35 30.872C1199.66 31.2987 1198.78 31.512 1197.69 31.512C1196.88 31.512 1196.11 31.3733 1195.39 31.096C1194.68 30.84 1194.06 30.4773 1193.53 30.008C1193 29.5387 1192.58 28.9733 1192.28 28.312C1191.98 27.6507 1191.83 26.9253 1191.83 26.136C1191.83 25.3253 1191.99 24.6 1192.31 23.96C1192.63 23.2987 1193.08 22.7333 1193.66 22.264C1194.23 21.7947 1194.91 21.4427 1195.67 21.208C1196.46 20.952 1197.32 20.824 1198.23 20.824C1199.26 20.824 1200.1 20.9093 1200.76 21.08C1201.42 21.2293 1201.97 21.3893 1202.39 21.56V21.08C1202.39 20.248 1202.06 19.5653 1201.4 19.032C1200.74 18.4773 1199.92 18.2 1198.94 18.2C1197.49 18.2 1196.26 18.808 1195.26 20.024L1192.22 17.944C1193.88 15.8533 1196.15 14.808 1199.03 14.808C1201.47 14.808 1203.32 15.384 1204.6 16.536C1205.88 17.6667 1206.52 19.352 1206.52 21.592V31H1202.39V29.336ZM1202.39 24.632C1201.9 24.3973 1201.39 24.216 1200.86 24.088C1200.35 23.9387 1199.78 23.864 1199.16 23.864C1198.16 23.864 1197.38 24.088 1196.83 24.536C1196.29 24.9627 1196.03 25.496 1196.03 26.136C1196.03 26.776 1196.28 27.288 1196.79 27.672C1197.33 28.056 1197.93 28.248 1198.62 28.248C1199.17 28.248 1199.68 28.152 1200.15 27.96C1200.62 27.7467 1201.02 27.48 1201.34 27.16C1201.68 26.8187 1201.93 26.4347 1202.11 26.008C1202.3 25.56 1202.39 25.1013 1202.39 24.632ZM1213.79 17.368H1214.05C1214.54 16.5787 1215.2 15.96 1216.03 15.512C1216.86 15.0427 1217.81 14.808 1218.88 14.808C1219.86 14.808 1220.72 14.968 1221.47 15.288C1222.22 15.608 1222.83 16.0667 1223.29 16.664C1223.79 17.24 1224.15 17.944 1224.38 18.776C1224.64 19.5867 1224.77 20.4933 1224.77 21.496V31H1220.57V22.008C1220.57 20.8773 1220.32 20.0453 1219.81 19.512C1219.32 18.9573 1218.59 18.68 1217.63 18.68C1217.05 18.68 1216.54 18.808 1216.09 19.064C1215.67 19.2987 1215.29 19.6293 1214.97 20.056C1214.68 20.4613 1214.44 20.952 1214.27 21.528C1214.12 22.0827 1214.05 22.68 1214.05 23.32V31H1209.85V15.32H1213.79V17.368ZM1239.91 29.112H1239.65C1239.27 29.7733 1238.67 30.3387 1237.86 30.808C1237.05 31.2773 1236.05 31.512 1234.85 31.512C1233.85 31.512 1232.89 31.3093 1231.97 30.904C1231.08 30.4773 1230.28 29.9013 1229.57 29.176C1228.89 28.4293 1228.35 27.544 1227.94 26.52C1227.54 25.496 1227.33 24.376 1227.33 23.16C1227.33 21.944 1227.54 20.824 1227.94 19.8C1228.35 18.776 1228.89 17.9013 1229.57 17.176C1230.28 16.4293 1231.08 15.8533 1231.97 15.448C1232.89 15.0213 1233.85 14.808 1234.85 14.808C1236.05 14.808 1237.05 15.0427 1237.86 15.512C1238.67 15.9813 1239.27 16.5467 1239.65 17.208H1239.91L1239.65 14.968V8.088H1243.85V31H1239.91V29.112ZM1235.72 27.64C1236.27 27.64 1236.79 27.544 1237.29 27.352C1237.8 27.1387 1238.25 26.84 1238.63 26.456C1239.01 26.072 1239.32 25.6027 1239.56 25.048C1239.79 24.4933 1239.91 23.864 1239.91 23.16C1239.91 22.456 1239.79 21.8267 1239.56 21.272C1239.32 20.7173 1239.01 20.248 1238.63 19.864C1238.25 19.48 1237.8 19.192 1237.29 19C1236.79 18.7867 1236.27 18.68 1235.72 18.68C1235.16 18.68 1234.63 18.7867 1234.12 19C1233.63 19.2133 1233.19 19.512 1232.81 19.896C1232.42 20.28 1232.11 20.7493 1231.88 21.304C1231.64 21.8587 1231.53 22.4773 1231.53 23.16C1231.53 23.8427 1231.64 24.4613 1231.88 25.016C1232.11 25.5707 1232.42 26.04 1232.81 26.424C1233.19 26.808 1233.63 27.1067 1234.12 27.32C1234.63 27.5333 1235.16 27.64 1235.72 27.64ZM1251.89 8.088H1256.46L1260.02 21.464L1260.53 23.928H1260.78L1261.46 21.464L1264.75 11.16H1268.78L1272.11 21.464L1272.75 23.896H1273.01L1273.49 21.464L1276.82 8.088H1281.39L1275.31 31H1271.15L1267.57 19.96L1266.9 17.432H1266.64L1265.97 19.96L1262.38 31H1258.22L1251.89 8.088ZM1282.73 15.32H1286.67V17.496H1286.92C1287.11 17.112 1287.37 16.76 1287.69 16.44C1288.01 16.12 1288.36 15.8427 1288.75 15.608C1289.15 15.3733 1289.58 15.192 1290.03 15.064C1290.49 14.936 1290.95 14.872 1291.4 14.872C1291.96 14.872 1292.43 14.9253 1292.81 15.032C1293.21 15.1387 1293.56 15.2773 1293.83 15.448L1292.71 19.256C1292.46 19.128 1292.17 19.032 1291.85 18.968C1291.55 18.8827 1291.18 18.84 1290.73 18.84C1290.15 18.84 1289.63 18.9573 1289.16 19.192C1288.69 19.4053 1288.29 19.7147 1287.95 20.12C1287.63 20.5253 1287.37 21.0053 1287.18 21.56C1287.01 22.0933 1286.92 22.68 1286.92 23.32V31H1282.73V15.32ZM1304.8 29.336H1304.54C1304.05 29.9333 1303.46 30.4453 1302.75 30.872C1302.07 31.2987 1301.18 31.512 1300.1 31.512C1299.29 31.512 1298.52 31.3733 1297.79 31.096C1297.09 30.84 1296.47 30.4773 1295.94 30.008C1295.4 29.5387 1294.99 28.9733 1294.69 28.312C1294.39 27.6507 1294.24 26.9253 1294.24 26.136C1294.24 25.3253 1294.4 24.6 1294.72 23.96C1295.04 23.2987 1295.49 22.7333 1296.06 22.264C1296.64 21.7947 1297.31 21.4427 1298.08 21.208C1298.87 20.952 1299.72 20.824 1300.64 20.824C1301.66 20.824 1302.51 20.9093 1303.17 21.08C1303.83 21.2293 1304.37 21.3893 1304.8 21.56V21.08C1304.8 20.248 1304.47 19.5653 1303.81 19.032C1303.15 18.4773 1302.33 18.2 1301.34 18.2C1299.89 18.2 1298.67 18.808 1297.66 20.024L1294.62 17.944C1296.29 15.8533 1298.56 14.808 1301.44 14.808C1303.87 14.808 1305.73 15.384 1307.01 16.536C1308.29 17.6667 1308.93 19.352 1308.93 21.592V31H1304.8V29.336ZM1304.8 24.632C1304.31 24.3973 1303.8 24.216 1303.26 24.088C1302.75 23.9387 1302.19 23.864 1301.57 23.864C1300.57 23.864 1299.79 24.088 1299.23 24.536C1298.7 24.9627 1298.43 25.496 1298.43 26.136C1298.43 26.776 1298.69 27.288 1299.2 27.672C1299.73 28.056 1300.34 28.248 1301.02 28.248C1301.58 28.248 1302.09 28.152 1302.56 27.96C1303.03 27.7467 1303.42 27.48 1303.74 27.16C1304.09 26.8187 1304.34 26.4347 1304.51 26.008C1304.7 25.56 1304.8 25.1013 1304.8 24.632ZM1312.13 15.32H1316.07V17.208H1316.32C1316.71 16.5467 1317.31 15.9813 1318.12 15.512C1318.93 15.0427 1319.93 14.808 1321.12 14.808C1322.13 14.808 1323.08 15.0213 1323.97 15.448C1324.89 15.8533 1325.69 16.4293 1326.37 17.176C1327.08 17.9013 1327.63 18.776 1328.04 19.8C1328.44 20.824 1328.64 21.944 1328.64 23.16C1328.64 24.376 1328.44 25.496 1328.04 26.52C1327.63 27.544 1327.08 28.4293 1326.37 29.176C1325.69 29.9013 1324.89 30.4773 1323.97 30.904C1323.08 31.3093 1322.13 31.512 1321.12 31.512C1319.93 31.512 1318.93 31.2773 1318.12 30.808C1317.31 30.3387 1316.71 29.7733 1316.32 29.112H1316.07L1316.32 31.352V37.912H1312.13V15.32ZM1320.26 27.64C1320.82 27.64 1321.34 27.5333 1321.83 27.32C1322.34 27.1067 1322.79 26.808 1323.17 26.424C1323.56 26.04 1323.87 25.5707 1324.1 25.016C1324.34 24.4613 1324.45 23.8427 1324.45 23.16C1324.45 22.4773 1324.34 21.8587 1324.1 21.304C1323.87 20.7493 1323.56 20.28 1323.17 19.896C1322.79 19.512 1322.34 19.2133 1321.83 19C1321.34 18.7867 1320.82 18.68 1320.26 18.68C1319.71 18.68 1319.17 18.7867 1318.66 19C1318.17 19.192 1317.73 19.48 1317.35 19.864C1316.96 20.248 1316.66 20.7173 1316.42 21.272C1316.19 21.8267 1316.07 22.456 1316.07 23.16C1316.07 23.864 1316.19 24.4933 1316.42 25.048C1316.66 25.6027 1316.96 26.072 1317.35 26.456C1317.73 26.84 1318.17 27.1387 1318.66 27.352C1319.17 27.544 1319.71 27.64 1320.26 27.64ZM1331.32 19.224H1342.17V22.936H1331.32V19.224ZM1356.61 28.952H1356.35C1355.86 29.7413 1355.2 30.3707 1354.37 30.84C1353.54 31.288 1352.59 31.512 1351.52 31.512C1349.54 31.512 1348.05 30.904 1347.07 29.688C1346.11 28.472 1345.63 26.8507 1345.63 24.824V15.32H1349.82V24.312C1349.82 25.4427 1350.07 26.2853 1350.56 26.84C1351.07 27.3733 1351.81 27.64 1352.77 27.64C1353.34 27.64 1353.85 27.5227 1354.27 27.288C1354.72 27.032 1355.09 26.7013 1355.39 26.296C1355.71 25.8693 1355.95 25.3787 1356.1 24.824C1356.27 24.248 1356.35 23.64 1356.35 23V15.32H1360.54V31H1356.61V28.952ZM1364.01 15.32H1367.94V17.208H1368.2C1368.58 16.5467 1369.18 15.9813 1369.99 15.512C1370.8 15.0427 1371.81 14.808 1373 14.808C1374 14.808 1374.95 15.0213 1375.85 15.448C1376.77 15.8533 1377.57 16.4293 1378.25 17.176C1378.95 17.9013 1379.51 18.776 1379.91 19.8C1380.32 20.824 1380.52 21.944 1380.52 23.16C1380.52 24.376 1380.32 25.496 1379.91 26.52C1379.51 27.544 1378.95 28.4293 1378.25 29.176C1377.57 29.9013 1376.77 30.4773 1375.85 30.904C1374.95 31.3093 1374 31.512 1373 31.512C1371.81 31.512 1370.8 31.2773 1369.99 30.808C1369.18 30.3387 1368.58 29.7733 1368.2 29.112H1367.94L1368.2 31.352V37.912H1364.01V15.32ZM1372.14 27.64C1372.69 27.64 1373.21 27.5333 1373.7 27.32C1374.22 27.1067 1374.66 26.808 1375.05 26.424C1375.43 26.04 1375.74 25.5707 1375.98 25.016C1376.21 24.4613 1376.33 23.8427 1376.33 23.16C1376.33 22.4773 1376.21 21.8587 1375.98 21.304C1375.74 20.7493 1375.43 20.28 1375.05 19.896C1374.66 19.512 1374.22 19.2133 1373.7 19C1373.21 18.7867 1372.69 18.68 1372.14 18.68C1371.58 18.68 1371.05 18.7867 1370.54 19C1370.05 19.192 1369.61 19.48 1369.22 19.864C1368.84 20.248 1368.53 20.7173 1368.3 21.272C1368.06 21.8267 1367.94 22.456 1367.94 23.16C1367.94 23.864 1368.06 24.4933 1368.3 25.048C1368.53 25.6027 1368.84 26.072 1369.22 26.456C1369.61 26.84 1370.05 27.1387 1370.54 27.352C1371.05 27.544 1371.58 27.64 1372.14 27.64ZM1385.73 31.192C1384.96 31.192 1384.3 30.9253 1383.74 30.392C1383.21 29.8373 1382.94 29.176 1382.94 28.408C1382.94 27.64 1383.21 26.9893 1383.74 26.456C1384.3 25.9227 1384.96 25.656 1385.73 25.656C1386.49 25.656 1387.14 25.9227 1387.68 26.456C1388.21 26.9893 1388.48 27.64 1388.48 28.408C1388.48 29.176 1388.21 29.8373 1387.68 30.392C1387.14 30.9253 1386.49 31.192 1385.73 31.192ZM1385.73 20.472C1384.96 20.472 1384.3 20.2053 1383.74 19.672C1383.21 19.1173 1382.94 18.456 1382.94 17.688C1382.94 16.92 1383.21 16.2693 1383.74 15.736C1384.3 15.1813 1384.96 14.904 1385.73 14.904C1386.49 14.904 1387.14 15.1813 1387.68 15.736C1388.21 16.2693 1388.48 16.92 1388.48 17.688C1388.48 18.456 1388.21 19.1173 1387.68 19.672C1387.14 20.2053 1386.49 20.472 1385.73 20.472ZM1409.56 31.512C1407.85 31.512 1406.26 31.2027 1404.79 30.584C1403.34 29.9653 1402.08 29.1227 1401.01 28.056C1399.95 26.968 1399.1 25.6987 1398.49 24.248C1397.89 22.776 1397.59 21.208 1397.59 19.544C1397.59 17.88 1397.89 16.3227 1398.49 14.872C1399.1 13.4 1399.95 12.1307 1401.01 11.064C1402.08 9.976 1403.34 9.12267 1404.79 8.504C1406.26 7.88533 1407.85 7.576 1409.56 7.576C1411.26 7.576 1412.84 7.88533 1414.29 8.504C1415.77 9.12267 1417.04 9.976 1418.1 11.064C1419.17 12.1307 1420 13.4 1420.6 14.872C1421.22 16.3227 1421.53 17.88 1421.53 19.544C1421.53 21.208 1421.22 22.776 1420.6 24.248C1420 25.6987 1419.17 26.968 1418.1 28.056C1417.04 29.1227 1415.77 29.9653 1414.29 30.584C1412.84 31.2027 1411.26 31.512 1409.56 31.512ZM1409.56 27.416C1410.62 27.416 1411.62 27.224 1412.53 26.84C1413.47 26.456 1414.28 25.9227 1414.97 25.24C1415.67 24.5573 1416.21 23.736 1416.6 22.776C1417 21.7947 1417.21 20.7173 1417.21 19.544C1417.21 18.3707 1417 17.304 1416.6 16.344C1416.21 15.3627 1415.67 14.5307 1414.97 13.848C1414.28 13.1653 1413.47 12.632 1412.53 12.248C1411.62 11.864 1410.62 11.672 1409.56 11.672C1408.49 11.672 1407.49 11.864 1406.55 12.248C1405.63 12.632 1404.82 13.1653 1404.12 13.848C1403.44 14.5307 1402.89 15.3627 1402.49 16.344C1402.1 17.304 1401.91 18.3707 1401.91 19.544C1401.91 20.7173 1402.1 21.7947 1402.49 22.776C1402.89 23.736 1403.44 24.5573 1404.12 25.24C1404.82 25.9227 1405.63 26.456 1406.55 26.84C1407.49 27.224 1408.49 27.416 1409.56 27.416ZM1439.39 27C1438.71 28.3227 1437.75 29.4107 1436.51 30.264C1435.29 31.096 1433.77 31.512 1431.93 31.512C1430.72 31.512 1429.6 31.3093 1428.57 30.904C1427.57 30.4773 1426.7 29.8907 1425.95 29.144C1425.23 28.3973 1424.65 27.5227 1424.22 26.52C1423.82 25.496 1423.61 24.376 1423.61 23.16C1423.61 21.944 1423.82 20.824 1424.22 19.8C1424.65 18.776 1425.23 17.9013 1425.95 17.176C1426.7 16.4293 1427.57 15.8533 1428.57 15.448C1429.6 15.0213 1430.72 14.808 1431.93 14.808C1433.75 14.808 1435.27 15.224 1436.51 16.056C1437.75 16.888 1438.65 17.9653 1439.23 19.288L1435.39 20.888C1435.03 20.1627 1434.56 19.6187 1433.98 19.256C1433.43 18.872 1432.72 18.68 1431.87 18.68C1431.32 18.68 1430.79 18.7867 1430.3 19C1429.81 19.2133 1429.37 19.512 1428.99 19.896C1428.63 20.28 1428.34 20.7493 1428.13 21.304C1427.91 21.8587 1427.81 22.4773 1427.81 23.16C1427.81 23.8427 1427.91 24.4613 1428.13 25.016C1428.34 25.5707 1428.63 26.04 1428.99 26.424C1429.37 26.808 1429.81 27.1067 1430.3 27.32C1430.79 27.5333 1431.32 27.64 1431.87 27.64C1432.75 27.64 1433.48 27.448 1434.08 27.064C1434.7 26.6587 1435.19 26.0827 1435.55 25.336L1439.39 27ZM1443.52 18.904H1440.77V15.32H1443.52V10.52H1447.71V15.32H1451.55V18.904H1447.71V24.984C1447.71 25.3467 1447.74 25.688 1447.81 26.008C1447.89 26.3067 1448.04 26.5627 1448.26 26.776C1448.55 27.1173 1448.98 27.288 1449.54 27.288C1449.9 27.288 1450.19 27.256 1450.4 27.192C1450.61 27.1067 1450.82 27 1451.01 26.872L1452.19 30.552C1451.7 30.7867 1451.17 30.9573 1450.59 31.064C1450.04 31.192 1449.42 31.256 1448.74 31.256C1447.95 31.256 1447.23 31.1387 1446.59 30.904C1445.97 30.648 1445.45 30.3067 1445.02 29.88C1444.02 28.92 1443.52 27.5547 1443.52 25.784V18.904ZM1461.9 14.808C1463.12 14.808 1464.23 15.0213 1465.23 15.448C1466.26 15.8533 1467.13 16.4293 1467.86 17.176C1468.6 17.9013 1469.18 18.776 1469.58 19.8C1470.01 20.824 1470.22 21.944 1470.22 23.16C1470.22 24.376 1470.01 25.496 1469.58 26.52C1469.18 27.544 1468.6 28.4293 1467.86 29.176C1467.13 29.9013 1466.26 30.4773 1465.23 30.904C1464.23 31.3093 1463.12 31.512 1461.9 31.512C1460.69 31.512 1459.57 31.3093 1458.54 30.904C1457.54 30.4773 1456.67 29.9013 1455.92 29.176C1455.19 28.4293 1454.62 27.544 1454.19 26.52C1453.79 25.496 1453.58 24.376 1453.58 23.16C1453.58 21.944 1453.79 20.824 1454.19 19.8C1454.62 18.776 1455.19 17.9013 1455.92 17.176C1456.67 16.4293 1457.54 15.8533 1458.54 15.448C1459.57 15.0213 1460.69 14.808 1461.9 14.808ZM1461.9 27.64C1462.44 27.64 1462.95 27.544 1463.44 27.352C1463.95 27.1387 1464.4 26.84 1464.78 26.456C1465.17 26.072 1465.47 25.6027 1465.68 25.048C1465.91 24.4933 1466.03 23.864 1466.03 23.16C1466.03 22.456 1465.91 21.8267 1465.68 21.272C1465.47 20.7173 1465.17 20.248 1464.78 19.864C1464.4 19.48 1463.95 19.192 1463.44 19C1462.95 18.7867 1462.44 18.68 1461.9 18.68C1461.35 18.68 1460.83 18.7867 1460.34 19C1459.84 19.192 1459.41 19.48 1459.02 19.864C1458.64 20.248 1458.33 20.7173 1458.1 21.272C1457.88 21.8267 1457.78 22.456 1457.78 23.16C1457.78 23.864 1457.88 24.4933 1458.1 25.048C1458.33 25.6027 1458.64 26.072 1459.02 26.456C1459.41 26.84 1459.84 27.1387 1460.34 27.352C1460.83 27.544 1461.35 27.64 1461.9 27.64ZM1472.76 8.088H1476.95V14.968L1476.7 17.208H1476.95C1477.34 16.5467 1477.93 15.9813 1478.74 15.512C1479.56 15.0427 1480.56 14.808 1481.75 14.808C1482.76 14.808 1483.7 15.0213 1484.6 15.448C1485.52 15.8533 1486.32 16.4293 1487 17.176C1487.7 17.9013 1488.26 18.776 1488.66 19.8C1489.07 20.824 1489.27 21.944 1489.27 23.16C1489.27 24.376 1489.07 25.496 1488.66 26.52C1488.26 27.544 1487.7 28.4293 1487 29.176C1486.32 29.9013 1485.52 30.4773 1484.6 30.904C1483.7 31.3093 1482.76 31.512 1481.75 31.512C1480.56 31.512 1479.56 31.2773 1478.74 30.808C1477.93 30.3387 1477.34 29.7733 1476.95 29.112H1476.7V31H1472.76V8.088ZM1480.89 27.64C1481.44 27.64 1481.97 27.5333 1482.46 27.32C1482.97 27.1067 1483.42 26.808 1483.8 26.424C1484.18 26.04 1484.49 25.5707 1484.73 25.016C1484.96 24.4613 1485.08 23.8427 1485.08 23.16C1485.08 22.4773 1484.96 21.8587 1484.73 21.304C1484.49 20.7493 1484.18 20.28 1483.8 19.896C1483.42 19.512 1482.97 19.2133 1482.46 19C1481.97 18.7867 1481.44 18.68 1480.89 18.68C1480.33 18.68 1479.8 18.7867 1479.29 19C1478.8 19.192 1478.36 19.48 1477.98 19.864C1477.59 20.248 1477.28 20.7173 1477.05 21.272C1476.81 21.8267 1476.7 22.456 1476.7 23.16C1476.7 23.864 1476.81 24.4933 1477.05 25.048C1477.28 25.6027 1477.59 26.072 1477.98 26.456C1478.36 26.84 1478.8 27.1387 1479.29 27.352C1479.8 27.544 1480.33 27.64 1480.89 27.64ZM1506.8 27.224C1506.07 28.504 1505.09 29.5387 1503.85 30.328C1502.64 31.1173 1501.14 31.512 1499.37 31.512C1498.18 31.512 1497.07 31.3093 1496.04 30.904C1495.04 30.4773 1494.17 29.8907 1493.42 29.144C1492.67 28.3973 1492.09 27.5227 1491.66 26.52C1491.25 25.496 1491.05 24.376 1491.05 23.16C1491.05 22.0293 1491.25 20.9627 1491.66 19.96C1492.07 18.936 1492.63 18.0507 1493.36 17.304C1494.08 16.536 1494.93 15.928 1495.92 15.48C1496.92 15.032 1498.02 14.808 1499.21 14.808C1500.47 14.808 1501.59 15.0213 1502.57 15.448C1503.55 15.8533 1504.37 16.4293 1505.04 17.176C1505.7 17.9013 1506.2 18.7653 1506.54 19.768C1506.88 20.7707 1507.05 21.8587 1507.05 23.032C1507.05 23.1813 1507.05 23.3093 1507.05 23.416C1507.03 23.544 1507.02 23.6613 1507.02 23.768C1507 23.8747 1506.99 23.992 1506.99 24.12H1495.18C1495.27 24.76 1495.44 25.3147 1495.69 25.784C1495.97 26.232 1496.3 26.616 1496.68 26.936C1497.09 27.2347 1497.53 27.4587 1498 27.608C1498.47 27.736 1498.95 27.8 1499.44 27.8C1500.4 27.8 1501.19 27.5867 1501.8 27.16C1502.44 26.712 1502.95 26.1573 1503.31 25.496L1506.8 27.224ZM1502.99 21.144C1502.97 20.8667 1502.87 20.5573 1502.7 20.216C1502.55 19.8747 1502.32 19.5547 1502 19.256C1501.7 18.9573 1501.31 18.712 1500.84 18.52C1500.4 18.328 1499.85 18.232 1499.21 18.232C1498.32 18.232 1497.53 18.488 1496.84 19C1496.16 19.512 1495.68 20.2267 1495.4 21.144H1502.99ZM1509.73 15.32H1513.67V17.496H1513.92C1514.11 17.112 1514.37 16.76 1514.69 16.44C1515.01 16.12 1515.36 15.8427 1515.75 15.608C1516.15 15.3733 1516.58 15.192 1517.03 15.064C1517.49 14.936 1517.95 14.872 1518.4 14.872C1518.96 14.872 1519.43 14.9253 1519.81 15.032C1520.21 15.1387 1520.56 15.2773 1520.83 15.448L1519.71 19.256C1519.46 19.128 1519.17 19.032 1518.85 18.968C1518.55 18.8827 1518.18 18.84 1517.73 18.84C1517.15 18.84 1516.63 18.9573 1516.16 19.192C1515.69 19.4053 1515.29 19.7147 1514.95 20.12C1514.63 20.5253 1514.37 21.0053 1514.18 21.56C1514.01 22.0933 1513.92 22.68 1513.92 23.32V31H1509.73V15.32ZM1529.47 31V27.192C1530.73 25.9547 1531.89 24.8027 1532.96 23.736C1533.41 23.288 1533.87 22.8293 1534.34 22.36C1534.81 21.8907 1535.24 21.4533 1535.65 21.048C1536.05 20.6427 1536.42 20.28 1536.74 19.96C1537.06 19.6187 1537.3 19.352 1537.47 19.16C1537.81 18.7547 1538.11 18.392 1538.37 18.072C1538.65 17.752 1538.86 17.4427 1539.01 17.144C1539.18 16.824 1539.31 16.5147 1539.39 16.216C1539.48 15.896 1539.52 15.5547 1539.52 15.192C1539.52 14.488 1539.24 13.88 1538.69 13.368C1538.13 12.8347 1537.38 12.568 1536.42 12.568C1535.46 12.568 1534.71 12.8453 1534.18 13.4C1533.64 13.9333 1533.28 14.5413 1533.09 15.224L1529.28 13.656C1529.45 13.08 1529.73 12.4933 1530.11 11.896C1530.5 11.2773 1530.99 10.7333 1531.58 10.264C1532.18 9.77333 1532.89 9.37867 1533.7 9.08C1534.53 8.76 1535.46 8.6 1536.48 8.6C1537.59 8.6 1538.59 8.77067 1539.49 9.112C1540.38 9.432 1541.14 9.88 1541.76 10.456C1542.38 11.032 1542.86 11.7147 1543.2 12.504C1543.54 13.272 1543.71 14.104 1543.71 15C1543.71 16.3653 1543.37 17.624 1542.69 18.776C1542.03 19.9067 1541.22 20.9627 1540.26 21.944L1537.5 24.696C1536.78 25.4213 1535.96 26.232 1535.04 27.128L1535.17 27.32H1544.03V31H1529.47ZM1554.43 31.512C1553.53 31.512 1552.67 31.3947 1551.84 31.16C1551.03 30.9253 1550.28 30.5733 1549.6 30.104C1548.91 29.6133 1548.31 29.0053 1547.77 28.28C1547.26 27.5547 1546.87 26.712 1546.59 25.752L1550.53 24.184C1550.8 25.2507 1551.27 26.0613 1551.93 26.616C1552.59 27.1493 1553.43 27.416 1554.43 27.416C1554.88 27.416 1555.3 27.352 1555.71 27.224C1556.11 27.0747 1556.47 26.872 1556.77 26.616C1557.06 26.36 1557.3 26.0613 1557.47 25.72C1557.66 25.3573 1557.76 24.952 1557.76 24.504C1557.76 23.5653 1557.41 22.8293 1556.7 22.296C1556.02 21.7627 1555.07 21.496 1553.85 21.496H1551.97V17.688H1553.69C1554.12 17.688 1554.54 17.6347 1554.94 17.528C1555.35 17.4213 1555.7 17.2613 1556 17.048C1556.32 16.8133 1556.56 16.5253 1556.73 16.184C1556.93 15.8213 1557.02 15.4053 1557.02 14.936C1557.02 14.2107 1556.77 13.624 1556.25 13.176C1555.74 12.7067 1555.05 12.472 1554.17 12.472C1553.23 12.472 1552.51 12.728 1552 13.24C1551.51 13.7307 1551.17 14.2853 1550.97 14.904L1547.13 13.336C1547.33 12.8027 1547.61 12.2587 1548 11.704C1548.38 11.128 1548.86 10.616 1549.44 10.168C1550.03 9.69867 1550.73 9.32533 1551.52 9.048C1552.31 8.74933 1553.21 8.6 1554.24 8.6C1555.28 8.6 1556.23 8.74933 1557.09 9.048C1557.96 9.34667 1558.71 9.76267 1559.33 10.296C1559.94 10.808 1560.42 11.4267 1560.77 12.152C1561.11 12.856 1561.28 13.624 1561.28 14.456C1561.28 15.096 1561.19 15.672 1561.02 16.184C1560.87 16.696 1560.67 17.1547 1560.41 17.56C1560.16 17.9653 1559.86 18.3173 1559.52 18.616C1559.2 18.8933 1558.87 19.1173 1558.53 19.288V19.544C1559.55 19.9493 1560.39 20.6 1561.05 21.496C1561.74 22.392 1562.08 23.5227 1562.08 24.888C1562.08 25.848 1561.9 26.7333 1561.53 27.544C1561.17 28.3333 1560.65 29.0267 1559.97 29.624C1559.3 30.2213 1558.5 30.68 1557.57 31C1556.63 31.3413 1555.58 31.512 1554.43 31.512ZM1564.44 33.848L1566.33 30.936C1565.86 30.7653 1565.45 30.456 1565.11 30.008C1564.79 29.56 1564.63 29.0267 1564.63 28.408C1564.63 27.64 1564.9 26.9893 1565.43 26.456C1565.99 25.9227 1566.65 25.656 1567.42 25.656C1568.18 25.656 1568.83 25.9227 1569.37 26.456C1569.9 26.9893 1570.17 27.64 1570.17 28.408C1570.17 28.8133 1570.1 29.176 1569.98 29.496C1569.85 29.7947 1569.64 30.1467 1569.37 30.552L1566.33 35.096L1564.44 33.848ZM1580.22 31V27.192C1581.48 25.9547 1582.64 24.8027 1583.71 23.736C1584.16 23.288 1584.62 22.8293 1585.09 22.36C1585.56 21.8907 1585.99 21.4533 1586.4 21.048C1586.8 20.6427 1587.17 20.28 1587.49 19.96C1587.81 19.6187 1588.05 19.352 1588.22 19.16C1588.56 18.7547 1588.86 18.392 1589.12 18.072C1589.4 17.752 1589.61 17.4427 1589.76 17.144C1589.93 16.824 1590.06 16.5147 1590.14 16.216C1590.23 15.896 1590.27 15.5547 1590.27 15.192C1590.27 14.488 1589.99 13.88 1589.44 13.368C1588.88 12.8347 1588.13 12.568 1587.17 12.568C1586.21 12.568 1585.46 12.8453 1584.93 13.4C1584.39 13.9333 1584.03 14.5413 1583.84 15.224L1580.03 13.656C1580.2 13.08 1580.48 12.4933 1580.86 11.896C1581.25 11.2773 1581.74 10.7333 1582.33 10.264C1582.93 9.77333 1583.64 9.37867 1584.45 9.08C1585.28 8.76 1586.21 8.6 1587.23 8.6C1588.34 8.6 1589.34 8.77067 1590.24 9.112C1591.13 9.432 1591.89 9.88 1592.51 10.456C1593.13 11.032 1593.61 11.7147 1593.95 12.504C1594.29 13.272 1594.46 14.104 1594.46 15C1594.46 16.3653 1594.12 17.624 1593.44 18.776C1592.78 19.9067 1591.97 20.9627 1591.01 21.944L1588.25 24.696C1587.53 25.4213 1586.71 26.232 1585.79 27.128L1585.92 27.32H1594.78V31H1580.22ZM1606.78 31.512C1605.37 31.512 1604.1 31.224 1602.97 30.648C1601.84 30.0507 1600.87 29.24 1600.06 28.216C1599.27 27.192 1598.66 25.9867 1598.24 24.6C1597.81 23.192 1597.6 21.6773 1597.6 20.056C1597.6 18.4347 1597.81 16.9307 1598.24 15.544C1598.66 14.136 1599.27 12.92 1600.06 11.896C1600.87 10.872 1601.84 10.072 1602.97 9.496C1604.1 8.89867 1605.37 8.6 1606.78 8.6C1608.19 8.6 1609.46 8.89867 1610.59 9.496C1611.72 10.072 1612.68 10.872 1613.47 11.896C1614.28 12.92 1614.9 14.136 1615.32 15.544C1615.75 16.9307 1615.96 18.4347 1615.96 20.056C1615.96 21.6773 1615.75 23.192 1615.32 24.6C1614.9 25.9867 1614.28 27.192 1613.47 28.216C1612.68 29.24 1611.72 30.0507 1610.59 30.648C1609.46 31.224 1608.19 31.512 1606.78 31.512ZM1606.78 27.544C1607.55 27.544 1608.24 27.3627 1608.86 27C1609.48 26.616 1610 26.0933 1610.43 25.432C1610.88 24.7493 1611.21 23.9493 1611.42 23.032C1611.65 22.1147 1611.77 21.1227 1611.77 20.056C1611.77 18.968 1611.65 17.976 1611.42 17.08C1611.21 16.1627 1610.88 15.3733 1610.43 14.712C1610 14.0293 1609.48 13.5067 1608.86 13.144C1608.24 12.76 1607.55 12.568 1606.78 12.568C1605.99 12.568 1605.29 12.76 1604.67 13.144C1604.05 13.5067 1603.53 14.0293 1603.1 14.712C1602.67 15.3733 1602.34 16.1627 1602.11 17.08C1601.89 17.976 1601.79 18.968 1601.79 20.056C1601.79 21.1227 1601.89 22.1147 1602.11 23.032C1602.34 23.9493 1602.67 24.7493 1603.1 25.432C1603.53 26.0933 1604.05 26.616 1604.67 27C1605.29 27.3627 1605.99 27.544 1606.78 27.544ZM1618.53 31V27.192C1619.79 25.9547 1620.96 24.8027 1622.02 23.736C1622.47 23.288 1622.93 22.8293 1623.4 22.36C1623.87 21.8907 1624.31 21.4533 1624.71 21.048C1625.12 20.6427 1625.48 20.28 1625.8 19.96C1626.12 19.6187 1626.36 19.352 1626.53 19.16C1626.88 18.7547 1627.17 18.392 1627.43 18.072C1627.71 17.752 1627.92 17.4427 1628.07 17.144C1628.24 16.824 1628.37 16.5147 1628.45 16.216C1628.54 15.896 1628.58 15.5547 1628.58 15.192C1628.58 14.488 1628.31 13.88 1627.75 13.368C1627.2 12.8347 1626.44 12.568 1625.48 12.568C1624.52 12.568 1623.77 12.8453 1623.24 13.4C1622.71 13.9333 1622.34 14.5413 1622.15 15.224L1618.34 13.656C1618.51 13.08 1618.79 12.4933 1619.17 11.896C1619.56 11.2773 1620.05 10.7333 1620.65 10.264C1621.24 9.77333 1621.95 9.37867 1622.76 9.08C1623.59 8.76 1624.52 8.6 1625.54 8.6C1626.65 8.6 1627.65 8.77067 1628.55 9.112C1629.45 9.432 1630.2 9.88 1630.82 10.456C1631.44 11.032 1631.92 11.7147 1632.26 12.504C1632.6 13.272 1632.77 14.104 1632.77 15C1632.77 16.3653 1632.43 17.624 1631.75 18.776C1631.09 19.9067 1630.28 20.9627 1629.32 21.944L1626.57 24.696C1625.84 25.4213 1625.02 26.232 1624.1 27.128L1624.23 27.32H1633.09V31H1618.53ZM1645.89 31V26.968H1635.78V23.576L1645.51 9.112H1650.05V23.064H1652.8V26.968H1650.05V31H1645.89ZM1645.89 15.352H1645.64L1640.42 23.064H1645.89V15.352Z" fill="black"/>
</svg>
